<svg xmlns="http://www.w3.org/2000/svg" width="100%" viewBox="0 0 435 352" fill="none" data-organism-layer="colony" class="footer-bottom-map-1" style=""><g clip-path="url(#clip0_8330_8255)"><path d="M107.88 0C111.969 0 115.275 3.29864 115.275 7.37855C115.275 11.4584 111.969 14.7571 107.88 14.7571C103.791 14.7571 100.485 11.4584 100.485 7.37855C100.485 3.29864 103.791 0 107.88 0ZM98.745 9.11467C102.834 9.11467 106.14 12.4133 106.14 16.4932C106.14 20.5731 102.834 23.8718 98.745 23.8718C94.656 23.8718 91.35 20.5731 91.35 16.4932C91.35 12.4133 94.656 9.11467 98.745 9.11467ZM107.88 9.11467C111.969 9.11467 115.275 12.4133 115.275 16.4932C115.275 20.5731 111.969 23.8718 107.88 23.8718C103.791 23.8718 100.485 20.5731 100.485 16.4932C100.485 12.4133 103.791 9.11467 107.88 9.11467ZM117.015 9.11467C121.104 9.11467 124.41 12.4133 124.41 16.4932C124.41 20.5731 121.104 23.8718 117.015 23.8718C112.926 23.8718 109.62 20.5731 109.62 16.4932C109.62 12.4133 112.926 9.11467 117.015 9.11467ZM107.88 18.2293C111.969 18.2293 115.275 21.528 115.275 25.6079C115.275 29.6878 111.969 32.9864 107.88 32.9864C103.791 32.9864 100.485 29.6878 100.485 25.6079C100.485 21.528 103.791 18.2293 107.88 18.2293ZM117.015 18.2293C121.104 18.2293 124.41 21.528 124.41 25.6079C124.41 29.6878 121.104 32.9864 117.015 32.9864C112.926 32.9864 109.62 29.6878 109.62 25.6079C109.62 21.528 112.926 18.2293 117.015 18.2293ZM107.88 27.344C111.969 27.344 115.275 30.6427 115.275 34.7226C115.275 38.8025 111.969 42.1011 107.88 42.1011C103.791 42.1011 100.485 38.8025 100.485 34.7226C100.485 30.6427 103.791 27.344 107.88 27.344ZM107.88 36.4587C111.969 36.4587 115.275 39.7573 115.275 43.8372C115.275 47.9171 111.969 51.2158 107.88 51.2158C103.791 51.2158 100.485 47.9171 100.485 43.8372C100.485 39.7573 103.791 36.4587 107.88 36.4587ZM117.015 36.4587C121.104 36.4587 124.41 39.7573 124.41 43.8372C124.41 47.9171 121.104 51.2158 117.015 51.2158C112.926 51.2158 109.62 47.9171 109.62 43.8372C109.62 39.7573 112.926 36.4587 117.015 36.4587ZM126.15 36.4587C130.239 36.4587 133.545 39.7573 133.545 43.8372C133.545 47.9171 130.239 51.2158 126.15 51.2158C122.061 51.2158 118.755 47.9171 118.755 43.8372C118.755 39.7573 122.061 36.4587 126.15 36.4587ZM162.69 36.4587C166.779 36.4587 170.085 39.7573 170.085 43.8372C170.085 47.9171 166.779 51.2158 162.69 51.2158C158.601 51.2158 155.295 47.9171 155.295 43.8372C155.295 39.7573 158.601 36.4587 162.69 36.4587ZM171.825 36.4587C175.914 36.4587 179.22 39.7573 179.22 43.8372C179.22 47.9171 175.914 51.2158 171.825 51.2158C167.736 51.2158 164.43 47.9171 164.43 43.8372C164.43 39.7573 167.736 36.4587 171.825 36.4587ZM180.96 36.4587C185.049 36.4587 188.355 39.7573 188.355 43.8372C188.355 47.9171 185.049 51.2158 180.96 51.2158C176.871 51.2158 173.565 47.9171 173.565 43.8372C173.565 39.7573 176.871 36.4587 180.96 36.4587ZM107.88 45.5734C111.969 45.5734 115.275 48.872 115.275 52.9519C115.275 57.0318 111.969 60.3305 107.88 60.3305C103.791 60.3305 100.485 57.0318 100.485 52.9519C100.485 48.872 103.791 45.5734 107.88 45.5734ZM117.015 45.5734C121.104 45.5734 124.41 48.872 124.41 52.9519C124.41 57.0318 121.104 60.3305 117.015 60.3305C112.926 60.3305 109.62 57.0318 109.62 52.9519C109.62 48.872 112.926 45.5734 117.015 45.5734ZM126.15 45.5734C130.239 45.5734 133.545 48.872 133.545 52.9519C133.545 57.0318 130.239 60.3305 126.15 60.3305C122.061 60.3305 118.755 57.0318 118.755 52.9519C118.755 48.872 122.061 45.5734 126.15 45.5734ZM135.285 45.5734C139.374 45.5734 142.68 48.872 142.68 52.9519C142.68 57.0318 139.374 60.3305 135.285 60.3305C131.196 60.3305 127.89 57.0318 127.89 52.9519C127.89 48.872 131.196 45.5734 135.285 45.5734ZM162.69 45.5734C166.779 45.5734 170.085 48.872 170.085 52.9519C170.085 57.0318 166.779 60.3305 162.69 60.3305C158.601 60.3305 155.295 57.0318 155.295 52.9519C155.295 48.872 158.601 45.5734 162.69 45.5734ZM171.825 45.5734C175.914 45.5734 179.22 48.872 179.22 52.9519C179.22 57.0318 175.914 60.3305 171.825 60.3305C167.736 60.3305 164.43 57.0318 164.43 52.9519C164.43 48.872 167.736 45.5734 171.825 45.5734ZM244.905 45.5734C248.994 45.5734 252.3 48.872 252.3 52.9519C252.3 57.0318 248.994 60.3305 244.905 60.3305C240.816 60.3305 237.51 57.0318 237.51 52.9519C237.51 48.872 240.816 45.5734 244.905 45.5734ZM117.015 54.688C121.104 54.688 124.41 57.9867 124.41 62.0666C124.41 66.1465 121.104 69.4451 117.015 69.4451C112.926 69.4451 109.62 66.1465 109.62 62.0666C109.62 57.9867 112.926 54.688 117.015 54.688ZM135.285 54.688C139.374 54.688 142.68 57.9867 142.68 62.0666C142.68 66.1465 139.374 69.4451 135.285 69.4451C131.196 69.4451 127.89 66.1465 127.89 62.0666C127.89 57.9867 131.196 54.688 135.285 54.688ZM162.69 54.688C166.779 54.688 170.085 57.9867 170.085 62.0666C170.085 66.1465 166.779 69.4451 162.69 69.4451C158.601 69.4451 155.295 66.1465 155.295 62.0666C155.295 57.9867 158.601 54.688 162.69 54.688ZM171.825 54.688C175.914 54.688 179.22 57.9867 179.22 62.0666C179.22 66.1465 175.914 69.4451 171.825 69.4451C167.736 69.4451 164.43 66.1465 164.43 62.0666C164.43 57.9867 167.736 54.688 171.825 54.688ZM235.77 54.688C239.859 54.688 243.165 57.9867 243.165 62.0666C243.165 66.1465 239.859 69.4451 235.77 69.4451C231.681 69.4451 228.375 66.1465 228.375 62.0666C228.375 57.9867 231.681 54.688 235.77 54.688ZM244.905 54.688C248.994 54.688 252.3 57.9867 252.3 62.0666C252.3 66.1465 248.994 69.4451 244.905 69.4451C240.816 69.4451 237.51 66.1465 237.51 62.0666C237.51 57.9867 240.816 54.688 244.905 54.688ZM254.04 54.688C258.129 54.688 261.435 57.9867 261.435 62.0666C261.435 66.1465 258.129 69.4451 254.04 69.4451C249.951 69.4451 246.645 66.1465 246.645 62.0666C246.645 57.9867 249.951 54.688 254.04 54.688ZM117.015 63.8027C121.104 63.8027 124.41 67.1014 124.41 71.1813C124.41 75.2612 121.104 78.5598 117.015 78.5598C112.926 78.5598 109.62 75.2612 109.62 71.1813C109.62 67.1014 112.926 63.8027 117.015 63.8027ZM126.15 63.8027C130.239 63.8027 133.545 67.1014 133.545 71.1813C133.545 75.2612 130.239 78.5598 126.15 78.5598C122.061 78.5598 118.755 75.2612 118.755 71.1813C118.755 67.1014 122.061 63.8027 126.15 63.8027ZM135.285 63.8027C139.374 63.8027 142.68 67.1014 142.68 71.1813C142.68 75.2612 139.374 78.5598 135.285 78.5598C131.196 78.5598 127.89 75.2612 127.89 71.1813C127.89 67.1014 131.196 63.8027 135.285 63.8027ZM162.69 63.8027C166.779 63.8027 170.085 67.1014 170.085 71.1813C170.085 75.2612 166.779 78.5598 162.69 78.5598C158.601 78.5598 155.295 75.2612 155.295 71.1813C155.295 67.1014 158.601 63.8027 162.69 63.8027ZM171.825 63.8027C175.914 63.8027 179.22 67.1014 179.22 71.1813C179.22 75.2612 175.914 78.5598 171.825 78.5598C167.736 78.5598 164.43 75.2612 164.43 71.1813C164.43 67.1014 167.736 63.8027 171.825 63.8027ZM235.77 63.8027C239.859 63.8027 243.165 67.1014 243.165 71.1813C243.165 75.2612 239.859 78.5598 235.77 78.5598C231.681 78.5598 228.375 75.2612 228.375 71.1813C228.375 67.1014 231.681 63.8027 235.77 63.8027ZM244.905 63.8027C248.994 63.8027 252.3 67.1014 252.3 71.1813C252.3 75.2612 248.994 78.5598 244.905 78.5598C240.816 78.5598 237.51 75.2612 237.51 71.1813C237.51 67.1014 240.816 63.8027 244.905 63.8027ZM126.15 72.9174C130.239 72.9174 133.545 76.216 133.545 80.2959C133.545 84.3758 130.239 87.6745 126.15 87.6745C122.061 87.6745 118.755 84.3758 118.755 80.2959C118.755 76.216 122.061 72.9174 126.15 72.9174ZM135.285 72.9174C139.374 72.9174 142.68 76.216 142.68 80.2959C142.68 84.3758 139.374 87.6745 135.285 87.6745C131.196 87.6745 127.89 84.3758 127.89 80.2959C127.89 76.216 131.196 72.9174 135.285 72.9174ZM153.555 72.9174C157.644 72.9174 160.95 76.216 160.95 80.2959C160.95 84.3758 157.644 87.6745 153.555 87.6745C149.466 87.6745 146.16 84.3758 146.16 80.2959C146.16 76.216 149.466 72.9174 153.555 72.9174ZM162.69 72.9174C166.779 72.9174 170.085 76.216 170.085 80.2959C170.085 84.3758 166.779 87.6745 162.69 87.6745C158.601 87.6745 155.295 84.3758 155.295 80.2959C155.295 76.216 158.601 72.9174 162.69 72.9174ZM171.825 72.9174C175.914 72.9174 179.22 76.216 179.22 80.2959C179.22 84.3758 175.914 87.6745 171.825 87.6745C167.736 87.6745 164.43 84.3758 164.43 80.2959C164.43 76.216 167.736 72.9174 171.825 72.9174ZM235.77 72.9174C239.859 72.9174 243.165 76.216 243.165 80.2959C243.165 84.3758 239.859 87.6745 235.77 87.6745C231.681 87.6745 228.375 84.3758 228.375 80.2959C228.375 76.216 231.681 72.9174 235.77 72.9174ZM244.905 72.9174C248.994 72.9174 252.3 76.216 252.3 80.2959C252.3 84.3758 248.994 87.6745 244.905 87.6745C240.816 87.6745 237.51 84.3758 237.51 80.2959C237.51 76.216 240.816 72.9174 244.905 72.9174ZM126.15 82.0321C130.239 82.0321 133.545 85.3307 133.545 89.4106C133.545 93.4905 130.239 96.7891 126.15 96.7891C122.061 96.7891 118.755 93.4905 118.755 89.4106C118.755 85.3307 122.061 82.0321 126.15 82.0321ZM135.285 82.0321C139.374 82.0321 142.68 85.3307 142.68 89.4106C142.68 93.4905 139.374 96.7891 135.285 96.7891C131.196 96.7891 127.89 93.4905 127.89 89.4106C127.89 85.3307 131.196 82.0321 135.285 82.0321ZM144.42 82.0321C148.509 82.0321 151.815 85.3307 151.815 89.4106C151.815 93.4905 148.509 96.7891 144.42 96.7891C140.331 96.7891 137.025 93.4905 137.025 89.4106C137.025 85.3307 140.331 82.0321 144.42 82.0321ZM153.555 82.0321C157.644 82.0321 160.95 85.3307 160.95 89.4106C160.95 93.4905 157.644 96.7891 153.555 96.7891C149.466 96.7891 146.16 93.4905 146.16 89.4106C146.16 85.3307 149.466 82.0321 153.555 82.0321ZM162.69 82.0321C166.779 82.0321 170.085 85.3307 170.085 89.4106C170.085 93.4905 166.779 96.7891 162.69 96.7891C158.601 96.7891 155.295 93.4905 155.295 89.4106C155.295 85.3307 158.601 82.0321 162.69 82.0321ZM226.635 82.0321C230.724 82.0321 234.03 85.3307 234.03 89.4106C234.03 93.4905 230.724 96.7891 226.635 96.7891C222.546 96.7891 219.24 93.4905 219.24 89.4106C219.24 85.3307 222.546 82.0321 226.635 82.0321ZM235.77 82.0321C239.859 82.0321 243.165 85.3307 243.165 89.4106C243.165 93.4905 239.859 96.7891 235.77 96.7891C231.681 96.7891 228.375 93.4905 228.375 89.4106C228.375 85.3307 231.681 82.0321 235.77 82.0321ZM244.905 82.0321C248.994 82.0321 252.3 85.3307 252.3 89.4106C252.3 93.4905 248.994 96.7891 244.905 96.7891C240.816 96.7891 237.51 93.4905 237.51 89.4106C237.51 85.3307 240.816 82.0321 244.905 82.0321ZM126.15 91.1467C130.239 91.1467 133.545 94.4454 133.545 98.5253C133.545 102.605 130.239 105.904 126.15 105.904C122.061 105.904 118.755 102.605 118.755 98.5253C118.755 94.4454 122.061 91.1467 126.15 91.1467ZM135.285 91.1467C139.374 91.1467 142.68 94.4454 142.68 98.5253C142.68 102.605 139.374 105.904 135.285 105.904C131.196 105.904 127.89 102.605 127.89 98.5253C127.89 94.4454 131.196 91.1467 135.285 91.1467ZM144.42 91.1467C148.509 91.1467 151.815 94.4454 151.815 98.5253C151.815 102.605 148.509 105.904 144.42 105.904C140.331 105.904 137.025 102.605 137.025 98.5253C137.025 94.4454 140.331 91.1467 144.42 91.1467ZM153.555 91.1467C157.644 91.1467 160.95 94.4454 160.95 98.5253C160.95 102.605 157.644 105.904 153.555 105.904C149.466 105.904 146.16 102.605 146.16 98.5253C146.16 94.4454 149.466 91.1467 153.555 91.1467ZM162.69 91.1467C166.779 91.1467 170.085 94.4454 170.085 98.5253C170.085 102.605 166.779 105.904 162.69 105.904C158.601 105.904 155.295 102.605 155.295 98.5253C155.295 94.4454 158.601 91.1467 162.69 91.1467ZM217.5 91.1467C221.589 91.1467 224.895 94.4454 224.895 98.5253C224.895 102.605 221.589 105.904 217.5 105.904C213.411 105.904 210.105 102.605 210.105 98.5253C210.105 94.4454 213.411 91.1467 217.5 91.1467ZM226.635 91.1467C230.724 91.1467 234.03 94.4454 234.03 98.5253C234.03 102.605 230.724 105.904 226.635 105.904C222.546 105.904 219.24 102.605 219.24 98.5253C219.24 94.4454 222.546 91.1467 226.635 91.1467ZM235.77 91.1467C239.859 91.1467 243.165 94.4454 243.165 98.5253C243.165 102.605 239.859 105.904 235.77 105.904C231.681 105.904 228.375 102.605 228.375 98.5253C228.375 94.4454 231.681 91.1467 235.77 91.1467ZM135.285 100.261C139.374 100.261 142.68 103.56 142.68 107.64C142.68 111.72 139.374 115.018 135.285 115.018C131.196 115.018 127.89 111.72 127.89 107.64C127.89 103.56 131.196 100.261 135.285 100.261ZM162.69 100.261C166.779 100.261 170.085 103.56 170.085 107.64C170.085 111.72 166.779 115.018 162.69 115.018C158.601 115.018 155.295 111.72 155.295 107.64C155.295 103.56 158.601 100.261 162.69 100.261ZM208.365 100.261C212.454 100.261 215.76 103.56 215.76 107.64C215.76 111.72 212.454 115.018 208.365 115.018C204.276 115.018 200.97 111.72 200.97 107.64C200.97 103.56 204.276 100.261 208.365 100.261ZM217.5 100.261C221.589 100.261 224.895 103.56 224.895 107.64C224.895 111.72 221.589 115.018 217.5 115.018C213.411 115.018 210.105 111.72 210.105 107.64C210.105 103.56 213.411 100.261 217.5 100.261ZM226.635 100.261C230.724 100.261 234.03 103.56 234.03 107.64C234.03 111.72 230.724 115.018 226.635 115.018C222.546 115.018 219.24 111.72 219.24 107.64C219.24 103.56 222.546 100.261 226.635 100.261ZM263.175 100.261C267.264 100.261 270.57 103.56 270.57 107.64C270.57 111.72 267.264 115.018 263.175 115.018C259.086 115.018 255.78 111.72 255.78 107.64C255.78 103.56 259.086 100.261 263.175 100.261ZM272.31 100.261C276.399 100.261 279.705 103.56 279.705 107.64C279.705 111.72 276.399 115.018 272.31 115.018C268.221 115.018 264.915 111.72 264.915 107.64C264.915 103.56 268.221 100.261 272.31 100.261ZM135.285 109.376C139.374 109.376 142.68 112.675 142.68 116.755C142.68 120.835 139.374 124.133 135.285 124.133C131.196 124.133 127.89 120.835 127.89 116.755C127.89 112.675 131.196 109.376 135.285 109.376ZM153.555 109.376C157.644 109.376 160.95 112.675 160.95 116.755C160.95 120.835 157.644 124.133 153.555 124.133C149.466 124.133 146.16 120.835 146.16 116.755C146.16 112.675 149.466 109.376 153.555 109.376ZM162.69 109.376C166.779 109.376 170.085 112.675 170.085 116.755C170.085 120.835 166.779 124.133 162.69 124.133C158.601 124.133 155.295 120.835 155.295 116.755C155.295 112.675 158.601 109.376 162.69 109.376ZM208.365 109.376C212.454 109.376 215.76 112.675 215.76 116.755C215.76 120.835 212.454 124.133 208.365 124.133C204.276 124.133 200.97 120.835 200.97 116.755C200.97 112.675 204.276 109.376 208.365 109.376ZM217.5 109.376C221.589 109.376 224.895 112.675 224.895 116.755C224.895 120.835 221.589 124.133 217.5 124.133C213.411 124.133 210.105 120.835 210.105 116.755C210.105 112.675 213.411 109.376 217.5 109.376ZM226.635 109.376C230.724 109.376 234.03 112.675 234.03 116.755C234.03 120.835 230.724 124.133 226.635 124.133C222.546 124.133 219.24 120.835 219.24 116.755C219.24 112.675 222.546 109.376 226.635 109.376ZM263.175 109.376C267.264 109.376 270.57 112.675 270.57 116.755C270.57 120.835 267.264 124.133 263.175 124.133C259.086 124.133 255.78 120.835 255.78 116.755C255.78 112.675 259.086 109.376 263.175 109.376ZM272.31 109.376C276.399 109.376 279.705 112.675 279.705 116.755C279.705 120.835 276.399 124.133 272.31 124.133C268.221 124.133 264.915 120.835 264.915 116.755C264.915 112.675 268.221 109.376 272.31 109.376ZM135.285 118.491C139.374 118.491 142.68 121.789 142.68 125.869C142.68 129.949 139.374 133.248 135.285 133.248C131.196 133.248 127.89 129.949 127.89 125.869C127.89 121.789 131.196 118.491 135.285 118.491ZM162.69 118.491C166.779 118.491 170.085 121.789 170.085 125.869C170.085 129.949 166.779 133.248 162.69 133.248C158.601 133.248 155.295 129.949 155.295 125.869C155.295 121.789 158.601 118.491 162.69 118.491ZM171.825 118.491C175.914 118.491 179.22 121.789 179.22 125.869C179.22 129.949 175.914 133.248 171.825 133.248C167.736 133.248 164.43 129.949 164.43 125.869C164.43 121.789 167.736 118.491 171.825 118.491ZM199.23 118.491C203.319 118.491 206.625 121.789 206.625 125.869C206.625 129.949 203.319 133.248 199.23 133.248C195.141 133.248 191.835 129.949 191.835 125.869C191.835 121.789 195.141 118.491 199.23 118.491ZM208.365 118.491C212.454 118.491 215.76 121.789 215.76 125.869C215.76 129.949 212.454 133.248 208.365 133.248C204.276 133.248 200.97 129.949 200.97 125.869C200.97 121.789 204.276 118.491 208.365 118.491ZM217.5 118.491C221.589 118.491 224.895 121.789 224.895 125.869C224.895 129.949 221.589 133.248 217.5 133.248C213.411 133.248 210.105 129.949 210.105 125.869C210.105 121.789 213.411 118.491 217.5 118.491ZM226.635 118.491C230.724 118.491 234.03 121.789 234.03 125.869C234.03 129.949 230.724 133.248 226.635 133.248C222.546 133.248 219.24 129.949 219.24 125.869C219.24 121.789 222.546 118.491 226.635 118.491ZM254.04 118.491C258.129 118.491 261.435 121.789 261.435 125.869C261.435 129.949 258.129 133.248 254.04 133.248C249.951 133.248 246.645 129.949 246.645 125.869C246.645 121.789 249.951 118.491 254.04 118.491ZM263.175 118.491C267.264 118.491 270.57 121.789 270.57 125.869C270.57 129.949 267.264 133.248 263.175 133.248C259.086 133.248 255.78 129.949 255.78 125.869C255.78 121.789 259.086 118.491 263.175 118.491ZM272.31 118.491C276.399 118.491 279.705 121.789 279.705 125.869C279.705 129.949 276.399 133.248 272.31 133.248C268.221 133.248 264.915 129.949 264.915 125.869C264.915 121.789 268.221 118.491 272.31 118.491ZM71.34 127.605C75.429 127.605 78.735 130.904 78.735 134.984C78.735 139.064 75.429 142.363 71.34 142.363C67.251 142.363 63.945 139.064 63.945 134.984C63.945 130.904 67.251 127.605 71.34 127.605ZM80.475 127.605C84.564 127.605 87.87 130.904 87.87 134.984C87.87 139.064 84.564 142.363 80.475 142.363C76.386 142.363 73.08 139.064 73.08 134.984C73.08 130.904 76.386 127.605 80.475 127.605ZM135.285 127.605C139.374 127.605 142.68 130.904 142.68 134.984C142.68 139.064 139.374 142.363 135.285 142.363C131.196 142.363 127.89 139.064 127.89 134.984C127.89 130.904 131.196 127.605 135.285 127.605ZM144.42 127.605C148.509 127.605 151.815 130.904 151.815 134.984C151.815 139.064 148.509 142.363 144.42 142.363C140.331 142.363 137.025 139.064 137.025 134.984C137.025 130.904 140.331 127.605 144.42 127.605ZM162.69 127.605C166.779 127.605 170.085 130.904 170.085 134.984C170.085 139.064 166.779 142.363 162.69 142.363C158.601 142.363 155.295 139.064 155.295 134.984C155.295 130.904 158.601 127.605 162.69 127.605ZM171.825 127.605C175.914 127.605 179.22 130.904 179.22 134.984C179.22 139.064 175.914 142.363 171.825 142.363C167.736 142.363 164.43 139.064 164.43 134.984C164.43 130.904 167.736 127.605 171.825 127.605ZM199.23 127.605C203.319 127.605 206.625 130.904 206.625 134.984C206.625 139.064 203.319 142.363 199.23 142.363C195.141 142.363 191.835 139.064 191.835 134.984C191.835 130.904 195.141 127.605 199.23 127.605ZM208.365 127.605C212.454 127.605 215.76 130.904 215.76 134.984C215.76 139.064 212.454 142.363 208.365 142.363C204.276 142.363 200.97 139.064 200.97 134.984C200.97 130.904 204.276 127.605 208.365 127.605ZM217.5 127.605C221.589 127.605 224.895 130.904 224.895 134.984C224.895 139.064 221.589 142.363 217.5 142.363C213.411 142.363 210.105 139.064 210.105 134.984C210.105 130.904 213.411 127.605 217.5 127.605ZM254.04 127.605C258.129 127.605 261.435 130.904 261.435 134.984C261.435 139.064 258.129 142.363 254.04 142.363C249.951 142.363 246.645 139.064 246.645 134.984C246.645 130.904 249.951 127.605 254.04 127.605ZM263.175 127.605C267.264 127.605 270.57 130.904 270.57 134.984C270.57 139.064 267.264 142.363 263.175 142.363C259.086 142.363 255.78 139.064 255.78 134.984C255.78 130.904 259.086 127.605 263.175 127.605ZM71.34 136.72C75.429 136.72 78.735 140.019 78.735 144.099C78.735 148.179 75.429 151.477 71.34 151.477C67.251 151.477 63.945 148.179 63.945 144.099C63.945 140.019 67.251 136.72 71.34 136.72ZM80.475 136.72C84.564 136.72 87.87 140.019 87.87 144.099C87.87 148.179 84.564 151.477 80.475 151.477C76.386 151.477 73.08 148.179 73.08 144.099C73.08 140.019 76.386 136.72 80.475 136.72ZM144.42 136.72C148.509 136.72 151.815 140.019 151.815 144.099C151.815 148.179 148.509 151.477 144.42 151.477C140.331 151.477 137.025 148.179 137.025 144.099C137.025 140.019 140.331 136.72 144.42 136.72ZM171.825 136.72C175.914 136.72 179.22 140.019 179.22 144.099C179.22 148.179 175.914 151.477 171.825 151.477C167.736 151.477 164.43 148.179 164.43 144.099C164.43 140.019 167.736 136.72 171.825 136.72ZM190.095 136.72C194.184 136.72 197.49 140.019 197.49 144.099C197.49 148.179 194.184 151.477 190.095 151.477C186.006 151.477 182.7 148.179 182.7 144.099C182.7 140.019 186.006 136.72 190.095 136.72ZM199.23 136.72C203.319 136.72 206.625 140.019 206.625 144.099C206.625 148.179 203.319 151.477 199.23 151.477C195.141 151.477 191.835 148.179 191.835 144.099C191.835 140.019 195.141 136.72 199.23 136.72ZM217.5 136.72C221.589 136.72 224.895 140.019 224.895 144.099C224.895 148.179 221.589 151.477 217.5 151.477C213.411 151.477 210.105 148.179 210.105 144.099C210.105 140.019 213.411 136.72 217.5 136.72ZM254.04 136.72C258.129 136.72 261.435 140.019 261.435 144.099C261.435 148.179 258.129 151.477 254.04 151.477C249.951 151.477 246.645 148.179 246.645 144.099C246.645 140.019 249.951 136.72 254.04 136.72ZM263.175 136.72C267.264 136.72 270.57 140.019 270.57 144.099C270.57 148.179 267.264 151.477 263.175 151.477C259.086 151.477 255.78 148.179 255.78 144.099C255.78 140.019 259.086 136.72 263.175 136.72ZM34.8 145.835C38.889 145.835 42.195 149.133 42.195 153.213C42.195 157.293 38.889 160.592 34.8 160.592C30.711 160.592 27.405 157.293 27.405 153.213C27.405 149.133 30.711 145.835 34.8 145.835ZM43.935 145.835C48.024 145.835 51.33 149.133 51.33 153.213C51.33 157.293 48.024 160.592 43.935 160.592C39.846 160.592 36.54 157.293 36.54 153.213C36.54 149.133 39.846 145.835 43.935 145.835ZM53.07 145.835C57.159 145.835 60.465 149.133 60.465 153.213C60.465 157.293 57.159 160.592 53.07 160.592C48.981 160.592 45.675 157.293 45.675 153.213C45.675 149.133 48.981 145.835 53.07 145.835ZM62.205 145.835C66.294 145.835 69.6 149.133 69.6 153.213C69.6 157.293 66.294 160.592 62.205 160.592C58.116 160.592 54.81 157.293 54.81 153.213C54.81 149.133 58.116 145.835 62.205 145.835ZM80.475 145.835C84.564 145.835 87.87 149.133 87.87 153.213C87.87 157.293 84.564 160.592 80.475 160.592C76.386 160.592 73.08 157.293 73.08 153.213C73.08 149.133 76.386 145.835 80.475 145.835ZM89.61 145.835C93.699 145.835 97.005 149.133 97.005 153.213C97.005 157.293 93.699 160.592 89.61 160.592C85.521 160.592 82.215 157.293 82.215 153.213C82.215 149.133 85.521 145.835 89.61 145.835ZM144.42 145.835C148.509 145.835 151.815 149.133 151.815 153.213C151.815 157.293 148.509 160.592 144.42 160.592C140.331 160.592 137.025 157.293 137.025 153.213C137.025 149.133 140.331 145.835 144.42 145.835ZM171.825 145.835C175.914 145.835 179.22 149.133 179.22 153.213C179.22 157.293 175.914 160.592 171.825 160.592C167.736 160.592 164.43 157.293 164.43 153.213C164.43 149.133 167.736 145.835 171.825 145.835ZM180.96 145.835C185.049 145.835 188.355 149.133 188.355 153.213C188.355 157.293 185.049 160.592 180.96 160.592C176.871 160.592 173.565 157.293 173.565 153.213C173.565 149.133 176.871 145.835 180.96 145.835ZM190.095 145.835C194.184 145.835 197.49 149.133 197.49 153.213C197.49 157.293 194.184 160.592 190.095 160.592C186.006 160.592 182.7 157.293 182.7 153.213C182.7 149.133 186.006 145.835 190.095 145.835ZM217.5 145.835C221.589 145.835 224.895 149.133 224.895 153.213C224.895 157.293 221.589 160.592 217.5 160.592C213.411 160.592 210.105 157.293 210.105 153.213C210.105 149.133 213.411 145.835 217.5 145.835ZM244.905 145.835C248.994 145.835 252.3 149.133 252.3 153.213C252.3 157.293 248.994 160.592 244.905 160.592C240.816 160.592 237.51 157.293 237.51 153.213C237.51 149.133 240.816 145.835 244.905 145.835ZM254.04 145.835C258.129 145.835 261.435 149.133 261.435 153.213C261.435 157.293 258.129 160.592 254.04 160.592C249.951 160.592 246.645 157.293 246.645 153.213C246.645 149.133 249.951 145.835 254.04 145.835ZM263.175 145.835C267.264 145.835 270.57 149.133 270.57 153.213C270.57 157.293 267.264 160.592 263.175 160.592C259.086 160.592 255.78 157.293 255.78 153.213C255.78 149.133 259.086 145.835 263.175 145.835ZM34.8 154.949C38.889 154.949 42.195 158.248 42.195 162.328C42.195 166.408 38.889 169.707 34.8 169.707C30.711 169.707 27.405 166.408 27.405 162.328C27.405 158.248 30.711 154.949 34.8 154.949ZM43.935 154.949C48.024 154.949 51.33 158.248 51.33 162.328C51.33 166.408 48.024 169.707 43.935 169.707C39.846 169.707 36.54 166.408 36.54 162.328C36.54 158.248 39.846 154.949 43.935 154.949ZM53.07 154.949C57.159 154.949 60.465 158.248 60.465 162.328C60.465 166.408 57.159 169.707 53.07 169.707C48.981 169.707 45.675 166.408 45.675 162.328C45.675 158.248 48.981 154.949 53.07 154.949ZM62.205 154.949C66.294 154.949 69.6 158.248 69.6 162.328C69.6 166.408 66.294 169.707 62.205 169.707C58.116 169.707 54.81 166.408 54.81 162.328C54.81 158.248 58.116 154.949 62.205 154.949ZM71.34 154.949C75.429 154.949 78.735 158.248 78.735 162.328C78.735 166.408 75.429 169.707 71.34 169.707C67.251 169.707 63.945 166.408 63.945 162.328C63.945 158.248 67.251 154.949 71.34 154.949ZM80.475 154.949C84.564 154.949 87.87 158.248 87.87 162.328C87.87 166.408 84.564 169.707 80.475 169.707C76.386 169.707 73.08 166.408 73.08 162.328C73.08 158.248 76.386 154.949 80.475 154.949ZM89.61 154.949C93.699 154.949 97.005 158.248 97.005 162.328C97.005 166.408 93.699 169.707 89.61 169.707C85.521 169.707 82.215 166.408 82.215 162.328C82.215 158.248 85.521 154.949 89.61 154.949ZM98.745 154.949C102.834 154.949 106.14 158.248 106.14 162.328C106.14 166.408 102.834 169.707 98.745 169.707C94.656 169.707 91.35 166.408 91.35 162.328C91.35 158.248 94.656 154.949 98.745 154.949ZM107.88 154.949C111.969 154.949 115.275 158.248 115.275 162.328C115.275 166.408 111.969 169.707 107.88 169.707C103.791 169.707 100.485 166.408 100.485 162.328C100.485 158.248 103.791 154.949 107.88 154.949ZM117.015 154.949C121.104 154.949 124.41 158.248 124.41 162.328C124.41 166.408 121.104 169.707 117.015 169.707C112.926 169.707 109.62 166.408 109.62 162.328C109.62 158.248 112.926 154.949 117.015 154.949ZM126.15 154.949C130.239 154.949 133.545 158.248 133.545 162.328C133.545 166.408 130.239 169.707 126.15 169.707C122.061 169.707 118.755 166.408 118.755 162.328C118.755 158.248 122.061 154.949 126.15 154.949ZM144.42 154.949C148.509 154.949 151.815 158.248 151.815 162.328C151.815 166.408 148.509 169.707 144.42 169.707C140.331 169.707 137.025 166.408 137.025 162.328C137.025 158.248 140.331 154.949 144.42 154.949ZM153.555 154.949C157.644 154.949 160.95 158.248 160.95 162.328C160.95 166.408 157.644 169.707 153.555 169.707C149.466 169.707 146.16 166.408 146.16 162.328C146.16 158.248 149.466 154.949 153.555 154.949ZM180.96 154.949C185.049 154.949 188.355 158.248 188.355 162.328C188.355 166.408 185.049 169.707 180.96 169.707C176.871 169.707 173.565 166.408 173.565 162.328C173.565 158.248 176.871 154.949 180.96 154.949ZM190.095 154.949C194.184 154.949 197.49 158.248 197.49 162.328C197.49 166.408 194.184 169.707 190.095 169.707C186.006 169.707 182.7 166.408 182.7 162.328C182.7 158.248 186.006 154.949 190.095 154.949ZM217.5 154.949C221.589 154.949 224.895 158.248 224.895 162.328C224.895 166.408 221.589 169.707 217.5 169.707C213.411 169.707 210.105 166.408 210.105 162.328C210.105 158.248 213.411 154.949 217.5 154.949ZM235.77 154.949C239.859 154.949 243.165 158.248 243.165 162.328C243.165 166.408 239.859 169.707 235.77 169.707C231.681 169.707 228.375 166.408 228.375 162.328C228.375 158.248 231.681 154.949 235.77 154.949ZM244.905 154.949C248.994 154.949 252.3 158.248 252.3 162.328C252.3 166.408 248.994 169.707 244.905 169.707C240.816 169.707 237.51 166.408 237.51 162.328C237.51 158.248 240.816 154.949 244.905 154.949ZM254.04 154.949C258.129 154.949 261.435 158.248 261.435 162.328C261.435 166.408 258.129 169.707 254.04 169.707C249.951 169.707 246.645 166.408 246.645 162.328C246.645 158.248 249.951 154.949 254.04 154.949ZM272.31 154.949C276.399 154.949 279.705 158.248 279.705 162.328C279.705 166.408 276.399 169.707 272.31 169.707C268.221 169.707 264.915 166.408 264.915 162.328C264.915 158.248 268.221 154.949 272.31 154.949ZM281.445 154.949C285.534 154.949 288.84 158.248 288.84 162.328C288.84 166.408 285.534 169.707 281.445 169.707C277.356 169.707 274.05 166.408 274.05 162.328C274.05 158.248 277.356 154.949 281.445 154.949ZM71.34 164.064C75.429 164.064 78.735 167.363 78.735 171.443C78.735 175.523 75.429 178.821 71.34 178.821C67.251 178.821 63.945 175.523 63.945 171.443C63.945 167.363 67.251 164.064 71.34 164.064ZM80.475 164.064C84.564 164.064 87.87 167.363 87.87 171.443C87.87 175.523 84.564 178.821 80.475 178.821C76.386 178.821 73.08 175.523 73.08 171.443C73.08 167.363 76.386 164.064 80.475 164.064ZM117.015 164.064C121.104 164.064 124.41 167.363 124.41 171.443C124.41 175.523 121.104 178.821 117.015 178.821C112.926 178.821 109.62 175.523 109.62 171.443C109.62 167.363 112.926 164.064 117.015 164.064ZM126.15 164.064C130.239 164.064 133.545 167.363 133.545 171.443C133.545 175.523 130.239 178.821 126.15 178.821C122.061 178.821 118.755 175.523 118.755 171.443C118.755 167.363 122.061 164.064 126.15 164.064ZM135.285 164.064C139.374 164.064 142.68 167.363 142.68 171.443C142.68 175.523 139.374 178.821 135.285 178.821C131.196 178.821 127.89 175.523 127.89 171.443C127.89 167.363 131.196 164.064 135.285 164.064ZM144.42 164.064C148.509 164.064 151.815 167.363 151.815 171.443C151.815 175.523 148.509 178.821 144.42 178.821C140.331 178.821 137.025 175.523 137.025 171.443C137.025 167.363 140.331 164.064 144.42 164.064ZM153.555 164.064C157.644 164.064 160.95 167.363 160.95 171.443C160.95 175.523 157.644 178.821 153.555 178.821C149.466 178.821 146.16 175.523 146.16 171.443C146.16 167.363 149.466 164.064 153.555 164.064ZM190.095 164.064C194.184 164.064 197.49 167.363 197.49 171.443C197.49 175.523 194.184 178.821 190.095 178.821C186.006 178.821 182.7 175.523 182.7 171.443C182.7 167.363 186.006 164.064 190.095 164.064ZM217.5 164.064C221.589 164.064 224.895 167.363 224.895 171.443C224.895 175.523 221.589 178.821 217.5 178.821C213.411 178.821 210.105 175.523 210.105 171.443C210.105 167.363 213.411 164.064 217.5 164.064ZM226.635 164.064C230.724 164.064 234.03 167.363 234.03 171.443C234.03 175.523 230.724 178.821 226.635 178.821C222.546 178.821 219.24 175.523 219.24 171.443C219.24 167.363 222.546 164.064 226.635 164.064ZM235.77 164.064C239.859 164.064 243.165 167.363 243.165 171.443C243.165 175.523 239.859 178.821 235.77 178.821C231.681 178.821 228.375 175.523 228.375 171.443C228.375 167.363 231.681 164.064 235.77 164.064ZM254.04 164.064C258.129 164.064 261.435 167.363 261.435 171.443C261.435 175.523 258.129 178.821 254.04 178.821C249.951 178.821 246.645 175.523 246.645 171.443C246.645 167.363 249.951 164.064 254.04 164.064ZM272.31 164.064C276.399 164.064 279.705 167.363 279.705 171.443C279.705 175.523 276.399 178.821 272.31 178.821C268.221 178.821 264.915 175.523 264.915 171.443C264.915 167.363 268.221 164.064 272.31 164.064ZM281.445 164.064C285.534 164.064 288.84 167.363 288.84 171.443C288.84 175.523 285.534 178.821 281.445 178.821C277.356 178.821 274.05 175.523 274.05 171.443C274.05 167.363 277.356 164.064 281.445 164.064ZM80.475 173.179C84.564 173.179 87.87 176.477 87.87 180.557C87.87 184.637 84.564 187.936 80.475 187.936C76.386 187.936 73.08 184.637 73.08 180.557C73.08 176.477 76.386 173.179 80.475 173.179ZM89.61 173.179C93.699 173.179 97.005 176.477 97.005 180.557C97.005 184.637 93.699 187.936 89.61 187.936C85.521 187.936 82.215 184.637 82.215 180.557C82.215 176.477 85.521 173.179 89.61 173.179ZM98.745 173.179C102.834 173.179 106.14 176.477 106.14 180.557C106.14 184.637 102.834 187.936 98.745 187.936C94.656 187.936 91.35 184.637 91.35 180.557C91.35 176.477 94.656 173.179 98.745 173.179ZM107.88 173.179C111.969 173.179 115.275 176.477 115.275 180.557C115.275 184.637 111.969 187.936 107.88 187.936C103.791 187.936 100.485 184.637 100.485 180.557C100.485 176.477 103.791 173.179 107.88 173.179ZM117.015 173.179C121.104 173.179 124.41 176.477 124.41 180.557C124.41 184.637 121.104 187.936 117.015 187.936C112.926 187.936 109.62 184.637 109.62 180.557C109.62 176.477 112.926 173.179 117.015 173.179ZM144.42 173.179C148.509 173.179 151.815 176.477 151.815 180.557C151.815 184.637 148.509 187.936 144.42 187.936C140.331 187.936 137.025 184.637 137.025 180.557C137.025 176.477 140.331 173.179 144.42 173.179ZM153.555 173.179C157.644 173.179 160.95 176.477 160.95 180.557C160.95 184.637 157.644 187.936 153.555 187.936C149.466 187.936 146.16 184.637 146.16 180.557C146.16 176.477 149.466 173.179 153.555 173.179ZM162.69 173.179C166.779 173.179 170.085 176.477 170.085 180.557C170.085 184.637 166.779 187.936 162.69 187.936C158.601 187.936 155.295 184.637 155.295 180.557C155.295 176.477 158.601 173.179 162.69 173.179ZM171.825 173.179C175.914 173.179 179.22 176.477 179.22 180.557C179.22 184.637 175.914 187.936 171.825 187.936C167.736 187.936 164.43 184.637 164.43 180.557C164.43 176.477 167.736 173.179 171.825 173.179ZM180.96 173.179C185.049 173.179 188.355 176.477 188.355 180.557C188.355 184.637 185.049 187.936 180.96 187.936C176.871 187.936 173.565 184.637 173.565 180.557C173.565 176.477 176.871 173.179 180.96 173.179ZM208.365 173.179C212.454 173.179 215.76 176.477 215.76 180.557C215.76 184.637 212.454 187.936 208.365 187.936C204.276 187.936 200.97 184.637 200.97 180.557C200.97 176.477 204.276 173.179 208.365 173.179ZM217.5 173.179C221.589 173.179 224.895 176.477 224.895 180.557C224.895 184.637 221.589 187.936 217.5 187.936C213.411 187.936 210.105 184.637 210.105 180.557C210.105 176.477 213.411 173.179 217.5 173.179ZM226.635 173.179C230.724 173.179 234.03 176.477 234.03 180.557C234.03 184.637 230.724 187.936 226.635 187.936C222.546 187.936 219.24 184.637 219.24 180.557C219.24 176.477 222.546 173.179 226.635 173.179ZM244.905 173.179C248.994 173.179 252.3 176.477 252.3 180.557C252.3 184.637 248.994 187.936 244.905 187.936C240.816 187.936 237.51 184.637 237.51 180.557C237.51 176.477 240.816 173.179 244.905 173.179ZM254.04 173.179C258.129 173.179 261.435 176.477 261.435 180.557C261.435 184.637 258.129 187.936 254.04 187.936C249.951 187.936 246.645 184.637 246.645 180.557C246.645 176.477 249.951 173.179 254.04 173.179ZM272.31 173.179C276.399 173.179 279.705 176.477 279.705 180.557C279.705 184.637 276.399 187.936 272.31 187.936C268.221 187.936 264.915 184.637 264.915 180.557C264.915 176.477 268.221 173.179 272.31 173.179ZM281.445 173.179C285.534 173.179 288.84 176.477 288.84 180.557C288.84 184.637 285.534 187.936 281.445 187.936C277.356 187.936 274.05 184.637 274.05 180.557C274.05 176.477 277.356 173.179 281.445 173.179ZM117.015 182.293C121.104 182.293 124.41 185.592 124.41 189.672C124.41 193.752 121.104 197.051 117.015 197.051C112.926 197.051 109.62 193.752 109.62 189.672C109.62 185.592 112.926 182.293 117.015 182.293ZM126.15 182.293C130.239 182.293 133.545 185.592 133.545 189.672C133.545 193.752 130.239 197.051 126.15 197.051C122.061 197.051 118.755 193.752 118.755 189.672C118.755 185.592 122.061 182.293 126.15 182.293ZM135.285 182.293C139.374 182.293 142.68 185.592 142.68 189.672C142.68 193.752 139.374 197.051 135.285 197.051C131.196 197.051 127.89 193.752 127.89 189.672C127.89 185.592 131.196 182.293 135.285 182.293ZM180.96 182.293C185.049 182.293 188.355 185.592 188.355 189.672C188.355 193.752 185.049 197.051 180.96 197.051C176.871 197.051 173.565 193.752 173.565 189.672C173.565 185.592 176.871 182.293 180.96 182.293ZM208.365 182.293C212.454 182.293 215.76 185.592 215.76 189.672C215.76 193.752 212.454 197.051 208.365 197.051C204.276 197.051 200.97 193.752 200.97 189.672C200.97 185.592 204.276 182.293 208.365 182.293ZM217.5 182.293C221.589 182.293 224.895 185.592 224.895 189.672C224.895 193.752 221.589 197.051 217.5 197.051C213.411 197.051 210.105 193.752 210.105 189.672C210.105 185.592 213.411 182.293 217.5 182.293ZM244.905 182.293C248.994 182.293 252.3 185.592 252.3 189.672C252.3 193.752 248.994 197.051 244.905 197.051C240.816 197.051 237.51 193.752 237.51 189.672C237.51 185.592 240.816 182.293 244.905 182.293ZM263.175 182.293C267.264 182.293 270.57 185.592 270.57 189.672C270.57 193.752 267.264 197.051 263.175 197.051C259.086 197.051 255.78 193.752 255.78 189.672C255.78 185.592 259.086 182.293 263.175 182.293ZM272.31 182.293C276.399 182.293 279.705 185.592 279.705 189.672C279.705 193.752 276.399 197.051 272.31 197.051C268.221 197.051 264.915 193.752 264.915 189.672C264.915 185.592 268.221 182.293 272.31 182.293ZM89.61 191.408C93.699 191.408 97.005 194.707 97.005 198.787C97.005 202.867 93.699 206.165 89.61 206.165C85.521 206.165 82.215 202.867 82.215 198.787C82.215 194.707 85.521 191.408 89.61 191.408ZM98.745 191.408C102.834 191.408 106.14 194.707 106.14 198.787C106.14 202.867 102.834 206.165 98.745 206.165C94.656 206.165 91.35 202.867 91.35 198.787C91.35 194.707 94.656 191.408 98.745 191.408ZM107.88 191.408C111.969 191.408 115.275 194.707 115.275 198.787C115.275 202.867 111.969 206.165 107.88 206.165C103.791 206.165 100.485 202.867 100.485 198.787C100.485 194.707 103.791 191.408 107.88 191.408ZM117.015 191.408C121.104 191.408 124.41 194.707 124.41 198.787C124.41 202.867 121.104 206.165 117.015 206.165C112.926 206.165 109.62 202.867 109.62 198.787C109.62 194.707 112.926 191.408 117.015 191.408ZM162.69 191.408C166.779 191.408 170.085 194.707 170.085 198.787C170.085 202.867 166.779 206.165 162.69 206.165C158.601 206.165 155.295 202.867 155.295 198.787C155.295 194.707 158.601 191.408 162.69 191.408ZM171.825 191.408C175.914 191.408 179.22 194.707 179.22 198.787C179.22 202.867 175.914 206.165 171.825 206.165C167.736 206.165 164.43 202.867 164.43 198.787C164.43 194.707 167.736 191.408 171.825 191.408ZM180.96 191.408C185.049 191.408 188.355 194.707 188.355 198.787C188.355 202.867 185.049 206.165 180.96 206.165C176.871 206.165 173.565 202.867 173.565 198.787C173.565 194.707 176.871 191.408 180.96 191.408ZM244.905 191.408C248.994 191.408 252.3 194.707 252.3 198.787C252.3 202.867 248.994 206.165 244.905 206.165C240.816 206.165 237.51 202.867 237.51 198.787C237.51 194.707 240.816 191.408 244.905 191.408ZM254.04 191.408C258.129 191.408 261.435 194.707 261.435 198.787C261.435 202.867 258.129 206.165 254.04 206.165C249.951 206.165 246.645 202.867 246.645 198.787C246.645 194.707 249.951 191.408 254.04 191.408ZM272.31 191.408C276.399 191.408 279.705 194.707 279.705 198.787C279.705 202.867 276.399 206.165 272.31 206.165C268.221 206.165 264.915 202.867 264.915 198.787C264.915 194.707 268.221 191.408 272.31 191.408ZM71.34 200.523C75.429 200.523 78.735 203.821 78.735 207.901C78.735 211.981 75.429 215.28 71.34 215.28C67.251 215.28 63.945 211.981 63.945 207.901C63.945 203.821 67.251 200.523 71.34 200.523ZM80.475 200.523C84.564 200.523 87.87 203.821 87.87 207.901C87.87 211.981 84.564 215.28 80.475 215.28C76.386 215.28 73.08 211.981 73.08 207.901C73.08 203.821 76.386 200.523 80.475 200.523ZM89.61 200.523C93.699 200.523 97.005 203.821 97.005 207.901C97.005 211.981 93.699 215.28 89.61 215.28C85.521 215.28 82.215 211.981 82.215 207.901C82.215 203.821 85.521 200.523 89.61 200.523ZM126.15 200.523C130.239 200.523 133.545 203.821 133.545 207.901C133.545 211.981 130.239 215.28 126.15 215.28C122.061 215.28 118.755 211.981 118.755 207.901C118.755 203.821 122.061 200.523 126.15 200.523ZM135.285 200.523C139.374 200.523 142.68 203.821 142.68 207.901C142.68 211.981 139.374 215.28 135.285 215.28C131.196 215.28 127.89 211.981 127.89 207.901C127.89 203.821 131.196 200.523 135.285 200.523ZM144.42 200.523C148.509 200.523 151.815 203.821 151.815 207.901C151.815 211.981 148.509 215.28 144.42 215.28C140.331 215.28 137.025 211.981 137.025 207.901C137.025 203.821 140.331 200.523 144.42 200.523ZM153.555 200.523C157.644 200.523 160.95 203.821 160.95 207.901C160.95 211.981 157.644 215.28 153.555 215.28C149.466 215.28 146.16 211.981 146.16 207.901C146.16 203.821 149.466 200.523 153.555 200.523ZM162.69 200.523C166.779 200.523 170.085 203.821 170.085 207.901C170.085 211.981 166.779 215.28 162.69 215.28C158.601 215.28 155.295 211.981 155.295 207.901C155.295 203.821 158.601 200.523 162.69 200.523ZM190.095 200.523C194.184 200.523 197.49 203.821 197.49 207.901C197.49 211.981 194.184 215.28 190.095 215.28C186.006 215.28 182.7 211.981 182.7 207.901C182.7 203.821 186.006 200.523 190.095 200.523ZM199.23 200.523C203.319 200.523 206.625 203.821 206.625 207.901C206.625 211.981 203.319 215.28 199.23 215.28C195.141 215.28 191.835 211.981 191.835 207.901C191.835 203.821 195.141 200.523 199.23 200.523ZM226.635 200.523C230.724 200.523 234.03 203.821 234.03 207.901C234.03 211.981 230.724 215.28 226.635 215.28C222.546 215.28 219.24 211.981 219.24 207.901C219.24 203.821 222.546 200.523 226.635 200.523ZM244.905 200.523C248.994 200.523 252.3 203.821 252.3 207.901C252.3 211.981 248.994 215.28 244.905 215.28C240.816 215.28 237.51 211.981 237.51 207.901C237.51 203.821 240.816 200.523 244.905 200.523ZM254.04 200.523C258.129 200.523 261.435 203.821 261.435 207.901C261.435 211.981 258.129 215.28 254.04 215.28C249.951 215.28 246.645 211.981 246.645 207.901C246.645 203.821 249.951 200.523 254.04 200.523ZM272.31 200.523C276.399 200.523 279.705 203.821 279.705 207.901C279.705 211.981 276.399 215.28 272.31 215.28C268.221 215.28 264.915 211.981 264.915 207.901C264.915 203.821 268.221 200.523 272.31 200.523ZM281.445 200.523C285.534 200.523 288.84 203.821 288.84 207.901C288.84 211.981 285.534 215.28 281.445 215.28C277.356 215.28 274.05 211.981 274.05 207.901C274.05 203.821 277.356 200.523 281.445 200.523ZM53.07 209.637C57.159 209.637 60.465 212.936 60.465 217.016C60.465 221.096 57.159 224.395 53.07 224.395C48.981 224.395 45.675 221.096 45.675 217.016C45.675 212.936 48.981 209.637 53.07 209.637ZM62.205 209.637C66.294 209.637 69.6 212.936 69.6 217.016C69.6 221.096 66.294 224.395 62.205 224.395C58.116 224.395 54.81 221.096 54.81 217.016C54.81 212.936 58.116 209.637 62.205 209.637ZM71.34 209.637C75.429 209.637 78.735 212.936 78.735 217.016C78.735 221.096 75.429 224.395 71.34 224.395C67.251 224.395 63.945 221.096 63.945 217.016C63.945 212.936 67.251 209.637 71.34 209.637ZM89.61 209.637C93.699 209.637 97.005 212.936 97.005 217.016C97.005 221.096 93.699 224.395 89.61 224.395C85.521 224.395 82.215 221.096 82.215 217.016C82.215 212.936 85.521 209.637 89.61 209.637ZM98.745 209.637C102.834 209.637 106.14 212.936 106.14 217.016C106.14 221.096 102.834 224.395 98.745 224.395C94.656 224.395 91.35 221.096 91.35 217.016C91.35 212.936 94.656 209.637 98.745 209.637ZM107.88 209.637C111.969 209.637 115.275 212.936 115.275 217.016C115.275 221.096 111.969 224.395 107.88 224.395C103.791 224.395 100.485 221.096 100.485 217.016C100.485 212.936 103.791 209.637 107.88 209.637ZM117.015 209.637C121.104 209.637 124.41 212.936 124.41 217.016C124.41 221.096 121.104 224.395 117.015 224.395C112.926 224.395 109.62 221.096 109.62 217.016C109.62 212.936 112.926 209.637 117.015 209.637ZM126.15 209.637C130.239 209.637 133.545 212.936 133.545 217.016C133.545 221.096 130.239 224.395 126.15 224.395C122.061 224.395 118.755 221.096 118.755 217.016C118.755 212.936 122.061 209.637 126.15 209.637ZM135.285 209.637C139.374 209.637 142.68 212.936 142.68 217.016C142.68 221.096 139.374 224.395 135.285 224.395C131.196 224.395 127.89 221.096 127.89 217.016C127.89 212.936 131.196 209.637 135.285 209.637ZM144.42 209.637C148.509 209.637 151.815 212.936 151.815 217.016C151.815 221.096 148.509 224.395 144.42 224.395C140.331 224.395 137.025 221.096 137.025 217.016C137.025 212.936 140.331 209.637 144.42 209.637ZM162.69 209.637C166.779 209.637 170.085 212.936 170.085 217.016C170.085 221.096 166.779 224.395 162.69 224.395C158.601 224.395 155.295 221.096 155.295 217.016C155.295 212.936 158.601 209.637 162.69 209.637ZM180.96 209.637C185.049 209.637 188.355 212.936 188.355 217.016C188.355 221.096 185.049 224.395 180.96 224.395C176.871 224.395 173.565 221.096 173.565 217.016C173.565 212.936 176.871 209.637 180.96 209.637ZM190.095 209.637C194.184 209.637 197.49 212.936 197.49 217.016C197.49 221.096 194.184 224.395 190.095 224.395C186.006 224.395 182.7 221.096 182.7 217.016C182.7 212.936 186.006 209.637 190.095 209.637ZM199.23 209.637C203.319 209.637 206.625 212.936 206.625 217.016C206.625 221.096 203.319 224.395 199.23 224.395C195.141 224.395 191.835 221.096 191.835 217.016C191.835 212.936 195.141 209.637 199.23 209.637ZM226.635 209.637C230.724 209.637 234.03 212.936 234.03 217.016C234.03 221.096 230.724 224.395 226.635 224.395C222.546 224.395 219.24 221.096 219.24 217.016C219.24 212.936 222.546 209.637 226.635 209.637ZM235.77 209.637C239.859 209.637 243.165 212.936 243.165 217.016C243.165 221.096 239.859 224.395 235.77 224.395C231.681 224.395 228.375 221.096 228.375 217.016C228.375 212.936 231.681 209.637 235.77 209.637ZM244.905 209.637C248.994 209.637 252.3 212.936 252.3 217.016C252.3 221.096 248.994 224.395 244.905 224.395C240.816 224.395 237.51 221.096 237.51 217.016C237.51 212.936 240.816 209.637 244.905 209.637ZM254.04 209.637C258.129 209.637 261.435 212.936 261.435 217.016C261.435 221.096 258.129 224.395 254.04 224.395C249.951 224.395 246.645 221.096 246.645 217.016C246.645 212.936 249.951 209.637 254.04 209.637ZM263.175 209.637C267.264 209.637 270.57 212.936 270.57 217.016C270.57 221.096 267.264 224.395 263.175 224.395C259.086 224.395 255.78 221.096 255.78 217.016C255.78 212.936 259.086 209.637 263.175 209.637ZM281.445 209.637C285.534 209.637 288.84 212.936 288.84 217.016C288.84 221.096 285.534 224.395 281.445 224.395C277.356 224.395 274.05 221.096 274.05 217.016C274.05 212.936 277.356 209.637 281.445 209.637ZM290.58 209.637C294.669 209.637 297.975 212.936 297.975 217.016C297.975 221.096 294.669 224.395 290.58 224.395C286.491 224.395 283.185 221.096 283.185 217.016C283.185 212.936 286.491 209.637 290.58 209.637ZM299.715 209.637C303.804 209.637 307.11 212.936 307.11 217.016C307.11 221.096 303.804 224.395 299.715 224.395C295.626 224.395 292.32 221.096 292.32 217.016C292.32 212.936 295.626 209.637 299.715 209.637ZM308.85 209.637C312.939 209.637 316.245 212.936 316.245 217.016C316.245 221.096 312.939 224.395 308.85 224.395C304.761 224.395 301.455 221.096 301.455 217.016C301.455 212.936 304.761 209.637 308.85 209.637ZM43.935 218.752C48.024 218.752 51.33 222.051 51.33 226.131C51.33 230.211 48.024 233.509 43.935 233.509C39.846 233.509 36.54 230.211 36.54 226.131C36.54 222.051 39.846 218.752 43.935 218.752ZM53.07 218.752C57.159 218.752 60.465 222.051 60.465 226.131C60.465 230.211 57.159 233.509 53.07 233.509C48.981 233.509 45.675 230.211 45.675 226.131C45.675 222.051 48.981 218.752 53.07 218.752ZM62.205 218.752C66.294 218.752 69.6 222.051 69.6 226.131C69.6 230.211 66.294 233.509 62.205 233.509C58.116 233.509 54.81 230.211 54.81 226.131C54.81 222.051 58.116 218.752 62.205 218.752ZM71.34 218.752C75.429 218.752 78.735 222.051 78.735 226.131C78.735 230.211 75.429 233.509 71.34 233.509C67.251 233.509 63.945 230.211 63.945 226.131C63.945 222.051 67.251 218.752 71.34 218.752ZM80.475 218.752C84.564 218.752 87.87 222.051 87.87 226.131C87.87 230.211 84.564 233.509 80.475 233.509C76.386 233.509 73.08 230.211 73.08 226.131C73.08 222.051 76.386 218.752 80.475 218.752ZM89.61 218.752C93.699 218.752 97.005 222.051 97.005 226.131C97.005 230.211 93.699 233.509 89.61 233.509C85.521 233.509 82.215 230.211 82.215 226.131C82.215 222.051 85.521 218.752 89.61 218.752ZM98.745 218.752C102.834 218.752 106.14 222.051 106.14 226.131C106.14 230.211 102.834 233.509 98.745 233.509C94.656 233.509 91.35 230.211 91.35 226.131C91.35 222.051 94.656 218.752 98.745 218.752ZM162.69 218.752C166.779 218.752 170.085 222.051 170.085 226.131C170.085 230.211 166.779 233.509 162.69 233.509C158.601 233.509 155.295 230.211 155.295 226.131C155.295 222.051 158.601 218.752 162.69 218.752ZM171.825 218.752C175.914 218.752 179.22 222.051 179.22 226.131C179.22 230.211 175.914 233.509 171.825 233.509C167.736 233.509 164.43 230.211 164.43 226.131C164.43 222.051 167.736 218.752 171.825 218.752ZM180.96 218.752C185.049 218.752 188.355 222.051 188.355 226.131C188.355 230.211 185.049 233.509 180.96 233.509C176.871 233.509 173.565 230.211 173.565 226.131C173.565 222.051 176.871 218.752 180.96 218.752ZM190.095 218.752C194.184 218.752 197.49 222.051 197.49 226.131C197.49 230.211 194.184 233.509 190.095 233.509C186.006 233.509 182.7 230.211 182.7 226.131C182.7 222.051 186.006 218.752 190.095 218.752ZM217.5 218.752C221.589 218.752 224.895 222.051 224.895 226.131C224.895 230.211 221.589 233.509 217.5 233.509C213.411 233.509 210.105 230.211 210.105 226.131C210.105 222.051 213.411 218.752 217.5 218.752ZM226.635 218.752C230.724 218.752 234.03 222.051 234.03 226.131C234.03 230.211 230.724 233.509 226.635 233.509C222.546 233.509 219.24 230.211 219.24 226.131C219.24 222.051 222.546 218.752 226.635 218.752ZM235.77 218.752C239.859 218.752 243.165 222.051 243.165 226.131C243.165 230.211 239.859 233.509 235.77 233.509C231.681 233.509 228.375 230.211 228.375 226.131C228.375 222.051 231.681 218.752 235.77 218.752ZM254.04 218.752C258.129 218.752 261.435 222.051 261.435 226.131C261.435 230.211 258.129 233.509 254.04 233.509C249.951 233.509 246.645 230.211 246.645 226.131C246.645 222.051 249.951 218.752 254.04 218.752ZM263.175 218.752C267.264 218.752 270.57 222.051 270.57 226.131C270.57 230.211 267.264 233.509 263.175 233.509C259.086 233.509 255.78 230.211 255.78 226.131C255.78 222.051 259.086 218.752 263.175 218.752ZM272.31 218.752C276.399 218.752 279.705 222.051 279.705 226.131C279.705 230.211 276.399 233.509 272.31 233.509C268.221 233.509 264.915 230.211 264.915 226.131C264.915 222.051 268.221 218.752 272.31 218.752ZM308.85 218.752C312.939 218.752 316.245 222.051 316.245 226.131C316.245 230.211 312.939 233.509 308.85 233.509C304.761 233.509 301.455 230.211 301.455 226.131C301.455 222.051 304.761 218.752 308.85 218.752ZM317.985 218.752C322.074 218.752 325.38 222.051 325.38 226.131C325.38 230.211 322.074 233.509 317.985 233.509C313.896 233.509 310.59 230.211 310.59 226.131C310.59 222.051 313.896 218.752 317.985 218.752ZM327.12 218.752C331.209 218.752 334.515 222.051 334.515 226.131C334.515 230.211 331.209 233.509 327.12 233.509C323.031 233.509 319.725 230.211 319.725 226.131C319.725 222.051 323.031 218.752 327.12 218.752ZM16.53 227.867C20.619 227.867 23.925 231.165 23.925 235.245C23.925 239.325 20.619 242.624 16.53 242.624C12.441 242.624 9.135 239.325 9.135 235.245C9.135 231.165 12.441 227.867 16.53 227.867ZM25.665 227.867C29.754 227.867 33.06 231.165 33.06 235.245C33.06 239.325 29.754 242.624 25.665 242.624C21.576 242.624 18.27 239.325 18.27 235.245C18.27 231.165 21.576 227.867 25.665 227.867ZM34.8 227.867C38.889 227.867 42.195 231.165 42.195 235.245C42.195 239.325 38.889 242.624 34.8 242.624C30.711 242.624 27.405 239.325 27.405 235.245C27.405 231.165 30.711 227.867 34.8 227.867ZM43.935 227.867C48.024 227.867 51.33 231.165 51.33 235.245C51.33 239.325 48.024 242.624 43.935 242.624C39.846 242.624 36.54 239.325 36.54 235.245C36.54 231.165 39.846 227.867 43.935 227.867ZM53.07 227.867C57.159 227.867 60.465 231.165 60.465 235.245C60.465 239.325 57.159 242.624 53.07 242.624C48.981 242.624 45.675 239.325 45.675 235.245C45.675 231.165 48.981 227.867 53.07 227.867ZM62.205 227.867C66.294 227.867 69.6 231.165 69.6 235.245C69.6 239.325 66.294 242.624 62.205 242.624C58.116 242.624 54.81 239.325 54.81 235.245C54.81 231.165 58.116 227.867 62.205 227.867ZM71.34 227.867C75.429 227.867 78.735 231.165 78.735 235.245C78.735 239.325 75.429 242.624 71.34 242.624C67.251 242.624 63.945 239.325 63.945 235.245C63.945 231.165 67.251 227.867 71.34 227.867ZM162.69 227.867C166.779 227.867 170.085 231.165 170.085 235.245C170.085 239.325 166.779 242.624 162.69 242.624C158.601 242.624 155.295 239.325 155.295 235.245C155.295 231.165 158.601 227.867 162.69 227.867ZM171.825 227.867C175.914 227.867 179.22 231.165 179.22 235.245C179.22 239.325 175.914 242.624 171.825 242.624C167.736 242.624 164.43 239.325 164.43 235.245C164.43 231.165 167.736 227.867 171.825 227.867ZM190.095 227.867C194.184 227.867 197.49 231.165 197.49 235.245C197.49 239.325 194.184 242.624 190.095 242.624C186.006 242.624 182.7 239.325 182.7 235.245C182.7 231.165 186.006 227.867 190.095 227.867ZM199.23 227.867C203.319 227.867 206.625 231.165 206.625 235.245C206.625 239.325 203.319 242.624 199.23 242.624C195.141 242.624 191.835 239.325 191.835 235.245C191.835 231.165 195.141 227.867 199.23 227.867ZM208.365 227.867C212.454 227.867 215.76 231.165 215.76 235.245C215.76 239.325 212.454 242.624 208.365 242.624C204.276 242.624 200.97 239.325 200.97 235.245C200.97 231.165 204.276 227.867 208.365 227.867ZM217.5 227.867C221.589 227.867 224.895 231.165 224.895 235.245C224.895 239.325 221.589 242.624 217.5 242.624C213.411 242.624 210.105 239.325 210.105 235.245C210.105 231.165 213.411 227.867 217.5 227.867ZM235.77 227.867C239.859 227.867 243.165 231.165 243.165 235.245C243.165 239.325 239.859 242.624 235.77 242.624C231.681 242.624 228.375 239.325 228.375 235.245C228.375 231.165 231.681 227.867 235.77 227.867ZM272.31 227.867C276.399 227.867 279.705 231.165 279.705 235.245C279.705 239.325 276.399 242.624 272.31 242.624C268.221 242.624 264.915 239.325 264.915 235.245C264.915 231.165 268.221 227.867 272.31 227.867ZM281.445 227.867C285.534 227.867 288.84 231.165 288.84 235.245C288.84 239.325 285.534 242.624 281.445 242.624C277.356 242.624 274.05 239.325 274.05 235.245C274.05 231.165 277.356 227.867 281.445 227.867ZM290.58 227.867C294.669 227.867 297.975 231.165 297.975 235.245C297.975 239.325 294.669 242.624 290.58 242.624C286.491 242.624 283.185 239.325 283.185 235.245C283.185 231.165 286.491 227.867 290.58 227.867ZM299.715 227.867C303.804 227.867 307.11 231.165 307.11 235.245C307.11 239.325 303.804 242.624 299.715 242.624C295.626 242.624 292.32 239.325 292.32 235.245C292.32 231.165 295.626 227.867 299.715 227.867ZM327.12 227.867C331.209 227.867 334.515 231.165 334.515 235.245C334.515 239.325 331.209 242.624 327.12 242.624C323.031 242.624 319.725 239.325 319.725 235.245C319.725 231.165 323.031 227.867 327.12 227.867ZM336.255 227.867C340.344 227.867 343.65 231.165 343.65 235.245C343.65 239.325 340.344 242.624 336.255 242.624C332.166 242.624 328.86 239.325 328.86 235.245C328.86 231.165 332.166 227.867 336.255 227.867ZM345.39 227.867C349.479 227.867 352.785 231.165 352.785 235.245C352.785 239.325 349.479 242.624 345.39 242.624C341.301 242.624 337.995 239.325 337.995 235.245C337.995 231.165 341.301 227.867 345.39 227.867ZM354.525 227.867C358.614 227.867 361.92 231.165 361.92 235.245C361.92 239.325 358.614 242.624 354.525 242.624C350.436 242.624 347.13 239.325 347.13 235.245C347.13 231.165 350.436 227.867 354.525 227.867ZM7.395 236.981C11.484 236.981 14.79 240.28 14.79 244.36C14.79 248.44 11.484 251.739 7.395 251.739C3.306 251.739 0 248.44 0 244.36C0 240.28 3.306 236.981 7.395 236.981ZM16.53 236.981C20.619 236.981 23.925 240.28 23.925 244.36C23.925 248.44 20.619 251.739 16.53 251.739C12.441 251.739 9.135 248.44 9.135 244.36C9.135 240.28 12.441 236.981 16.53 236.981ZM25.665 236.981C29.754 236.981 33.06 240.28 33.06 244.36C33.06 248.44 29.754 251.739 25.665 251.739C21.576 251.739 18.27 248.44 18.27 244.36C18.27 240.28 21.576 236.981 25.665 236.981ZM34.8 236.981C38.889 236.981 42.195 240.28 42.195 244.36C42.195 248.44 38.889 251.739 34.8 251.739C30.711 251.739 27.405 248.44 27.405 244.36C27.405 240.28 30.711 236.981 34.8 236.981ZM53.07 236.981C57.159 236.981 60.465 240.28 60.465 244.36C60.465 248.44 57.159 251.739 53.07 251.739C48.981 251.739 45.675 248.44 45.675 244.36C45.675 240.28 48.981 236.981 53.07 236.981ZM62.205 236.981C66.294 236.981 69.6 240.28 69.6 244.36C69.6 248.44 66.294 251.739 62.205 251.739C58.116 251.739 54.81 248.44 54.81 244.36C54.81 240.28 58.116 236.981 62.205 236.981ZM153.555 236.981C157.644 236.981 160.95 240.28 160.95 244.36C160.95 248.44 157.644 251.739 153.555 251.739C149.466 251.739 146.16 248.44 146.16 244.36C146.16 240.28 149.466 236.981 153.555 236.981ZM162.69 236.981C166.779 236.981 170.085 240.28 170.085 244.36C170.085 248.44 166.779 251.739 162.69 251.739C158.601 251.739 155.295 248.44 155.295 244.36C155.295 240.28 158.601 236.981 162.69 236.981ZM190.095 236.981C194.184 236.981 197.49 240.28 197.49 244.36C197.49 248.44 194.184 251.739 190.095 251.739C186.006 251.739 182.7 248.44 182.7 244.36C182.7 240.28 186.006 236.981 190.095 236.981ZM208.365 236.981C212.454 236.981 215.76 240.28 215.76 244.36C215.76 248.44 212.454 251.739 208.365 251.739C204.276 251.739 200.97 248.44 200.97 244.36C200.97 240.28 204.276 236.981 208.365 236.981ZM217.5 236.981C221.589 236.981 224.895 240.28 224.895 244.36C224.895 248.44 221.589 251.739 217.5 251.739C213.411 251.739 210.105 248.44 210.105 244.36C210.105 240.28 213.411 236.981 217.5 236.981ZM235.77 236.981C239.859 236.981 243.165 240.28 243.165 244.36C243.165 248.44 239.859 251.739 235.77 251.739C231.681 251.739 228.375 248.44 228.375 244.36C228.375 240.28 231.681 236.981 235.77 236.981ZM254.04 236.981C258.129 236.981 261.435 240.28 261.435 244.36C261.435 248.44 258.129 251.739 254.04 251.739C249.951 251.739 246.645 248.44 246.645 244.36C246.645 240.28 249.951 236.981 254.04 236.981ZM263.175 236.981C267.264 236.981 270.57 240.28 270.57 244.36C270.57 248.44 267.264 251.739 263.175 251.739C259.086 251.739 255.78 248.44 255.78 244.36C255.78 240.28 259.086 236.981 263.175 236.981ZM281.445 236.981C285.534 236.981 288.84 240.28 288.84 244.36C288.84 248.44 285.534 251.739 281.445 251.739C277.356 251.739 274.05 248.44 274.05 244.36C274.05 240.28 277.356 236.981 281.445 236.981ZM299.715 236.981C303.804 236.981 307.11 240.28 307.11 244.36C307.11 248.44 303.804 251.739 299.715 251.739C295.626 251.739 292.32 248.44 292.32 244.36C292.32 240.28 295.626 236.981 299.715 236.981ZM308.85 236.981C312.939 236.981 316.245 240.28 316.245 244.36C316.245 248.44 312.939 251.739 308.85 251.739C304.761 251.739 301.455 248.44 301.455 244.36C301.455 240.28 304.761 236.981 308.85 236.981ZM317.985 236.981C322.074 236.981 325.38 240.28 325.38 244.36C325.38 248.44 322.074 251.739 317.985 251.739C313.896 251.739 310.59 248.44 310.59 244.36C310.59 240.28 313.896 236.981 317.985 236.981ZM327.12 236.981C331.209 236.981 334.515 240.28 334.515 244.36C334.515 248.44 331.209 251.739 327.12 251.739C323.031 251.739 319.725 248.44 319.725 244.36C319.725 240.28 323.031 236.981 327.12 236.981ZM345.39 236.981C349.479 236.981 352.785 240.28 352.785 244.36C352.785 248.44 349.479 251.739 345.39 251.739C341.301 251.739 337.995 248.44 337.995 244.36C337.995 240.28 341.301 236.981 345.39 236.981ZM354.525 236.981C358.614 236.981 361.92 240.28 361.92 244.36C361.92 248.44 358.614 251.739 354.525 251.739C350.436 251.739 347.13 248.44 347.13 244.36C347.13 240.28 350.436 236.981 354.525 236.981ZM363.66 236.981C367.749 236.981 371.055 240.28 371.055 244.36C371.055 248.44 367.749 251.739 363.66 251.739C359.571 251.739 356.265 248.44 356.265 244.36C356.265 240.28 359.571 236.981 363.66 236.981ZM372.795 236.981C376.884 236.981 380.19 240.28 380.19 244.36C380.19 248.44 376.884 251.739 372.795 251.739C368.706 251.739 365.4 248.44 365.4 244.36C365.4 240.28 368.706 236.981 372.795 236.981ZM381.93 236.981C386.019 236.981 389.325 240.28 389.325 244.36C389.325 248.44 386.019 251.739 381.93 251.739C377.841 251.739 374.535 248.44 374.535 244.36C374.535 240.28 377.841 236.981 381.93 236.981ZM7.395 246.096C11.484 246.096 14.79 249.395 14.79 253.475C14.79 257.555 11.484 260.853 7.395 260.853C3.306 260.853 0 257.555 0 253.475C0 249.395 3.306 246.096 7.395 246.096ZM16.53 246.096C20.619 246.096 23.925 249.395 23.925 253.475C23.925 257.555 20.619 260.853 16.53 260.853C12.441 260.853 9.135 257.555 9.135 253.475C9.135 249.395 12.441 246.096 16.53 246.096ZM53.07 246.096C57.159 246.096 60.465 249.395 60.465 253.475C60.465 257.555 57.159 260.853 53.07 260.853C48.981 260.853 45.675 257.555 45.675 253.475C45.675 249.395 48.981 246.096 53.07 246.096ZM153.555 246.096C157.644 246.096 160.95 249.395 160.95 253.475C160.95 257.555 157.644 260.853 153.555 260.853C149.466 260.853 146.16 257.555 146.16 253.475C146.16 249.395 149.466 246.096 153.555 246.096ZM162.69 246.096C166.779 246.096 170.085 249.395 170.085 253.475C170.085 257.555 166.779 260.853 162.69 260.853C158.601 260.853 155.295 257.555 155.295 253.475C155.295 249.395 158.601 246.096 162.69 246.096ZM190.095 246.096C194.184 246.096 197.49 249.395 197.49 253.475C197.49 257.555 194.184 260.853 190.095 260.853C186.006 260.853 182.7 257.555 182.7 253.475C182.7 249.395 186.006 246.096 190.095 246.096ZM199.23 246.096C203.319 246.096 206.625 249.395 206.625 253.475C206.625 257.555 203.319 260.853 199.23 260.853C195.141 260.853 191.835 257.555 191.835 253.475C191.835 249.395 195.141 246.096 199.23 246.096ZM208.365 246.096C212.454 246.096 215.76 249.395 215.76 253.475C215.76 257.555 212.454 260.853 208.365 260.853C204.276 260.853 200.97 257.555 200.97 253.475C200.97 249.395 204.276 246.096 208.365 246.096ZM235.77 246.096C239.859 246.096 243.165 249.395 243.165 253.475C243.165 257.555 239.859 260.853 235.77 260.853C231.681 260.853 228.375 257.555 228.375 253.475C228.375 249.395 231.681 246.096 235.77 246.096ZM254.04 246.096C258.129 246.096 261.435 249.395 261.435 253.475C261.435 257.555 258.129 260.853 254.04 260.853C249.951 260.853 246.645 257.555 246.645 253.475C246.645 249.395 249.951 246.096 254.04 246.096ZM263.175 246.096C267.264 246.096 270.57 249.395 270.57 253.475C270.57 257.555 267.264 260.853 263.175 260.853C259.086 260.853 255.78 257.555 255.78 253.475C255.78 249.395 259.086 246.096 263.175 246.096ZM272.31 246.096C276.399 246.096 279.705 249.395 279.705 253.475C279.705 257.555 276.399 260.853 272.31 260.853C268.221 260.853 264.915 257.555 264.915 253.475C264.915 249.395 268.221 246.096 272.31 246.096ZM281.445 246.096C285.534 246.096 288.84 249.395 288.84 253.475C288.84 257.555 285.534 260.853 281.445 260.853C277.356 260.853 274.05 257.555 274.05 253.475C274.05 249.395 277.356 246.096 281.445 246.096ZM308.85 246.096C312.939 246.096 316.245 249.395 316.245 253.475C316.245 257.555 312.939 260.853 308.85 260.853C304.761 260.853 301.455 257.555 301.455 253.475C301.455 249.395 304.761 246.096 308.85 246.096ZM317.985 246.096C322.074 246.096 325.38 249.395 325.38 253.475C325.38 257.555 322.074 260.853 317.985 260.853C313.896 260.853 310.59 257.555 310.59 253.475C310.59 249.395 313.896 246.096 317.985 246.096ZM327.12 246.096C331.209 246.096 334.515 249.395 334.515 253.475C334.515 257.555 331.209 260.853 327.12 260.853C323.031 260.853 319.725 257.555 319.725 253.475C319.725 249.395 323.031 246.096 327.12 246.096ZM336.255 246.096C340.344 246.096 343.65 249.395 343.65 253.475C343.65 257.555 340.344 260.853 336.255 260.853C332.166 260.853 328.86 257.555 328.86 253.475C328.86 249.395 332.166 246.096 336.255 246.096ZM363.66 246.096C367.749 246.096 371.055 249.395 371.055 253.475C371.055 257.555 367.749 260.853 363.66 260.853C359.571 260.853 356.265 257.555 356.265 253.475C356.265 249.395 359.571 246.096 363.66 246.096ZM372.795 246.096C376.884 246.096 380.19 249.395 380.19 253.475C380.19 257.555 376.884 260.853 372.795 260.853C368.706 260.853 365.4 257.555 365.4 253.475C365.4 249.395 368.706 246.096 372.795 246.096ZM381.93 246.096C386.019 246.096 389.325 249.395 389.325 253.475C389.325 257.555 386.019 260.853 381.93 260.853C377.841 260.853 374.535 257.555 374.535 253.475C374.535 249.395 377.841 246.096 381.93 246.096ZM391.065 246.096C395.154 246.096 398.46 249.395 398.46 253.475C398.46 257.555 395.154 260.853 391.065 260.853C386.976 260.853 383.67 257.555 383.67 253.475C383.67 249.395 386.976 246.096 391.065 246.096ZM418.47 246.096C422.559 246.096 425.865 249.395 425.865 253.475C425.865 257.555 422.559 260.853 418.47 260.853C414.381 260.853 411.075 257.555 411.075 253.475C411.075 249.395 414.381 246.096 418.47 246.096ZM427.605 246.096C431.694 246.096 435 249.395 435 253.475C435 257.555 431.694 260.853 427.605 260.853C423.516 260.853 420.21 257.555 420.21 253.475C420.21 249.395 423.516 246.096 427.605 246.096ZM144.42 255.211C148.509 255.211 151.815 258.509 151.815 262.589C151.815 266.669 148.509 269.968 144.42 269.968C140.331 269.968 137.025 266.669 137.025 262.589C137.025 258.509 140.331 255.211 144.42 255.211ZM153.555 255.211C157.644 255.211 160.95 258.509 160.95 262.589C160.95 266.669 157.644 269.968 153.555 269.968C149.466 269.968 146.16 266.669 146.16 262.589C146.16 258.509 149.466 255.211 153.555 255.211ZM180.96 255.211C185.049 255.211 188.355 258.509 188.355 262.589C188.355 266.669 185.049 269.968 180.96 269.968C176.871 269.968 173.565 266.669 173.565 262.589C173.565 258.509 176.871 255.211 180.96 255.211ZM190.095 255.211C194.184 255.211 197.49 258.509 197.49 262.589C197.49 266.669 194.184 269.968 190.095 269.968C186.006 269.968 182.7 266.669 182.7 262.589C182.7 258.509 186.006 255.211 190.095 255.211ZM199.23 255.211C203.319 255.211 206.625 258.509 206.625 262.589C206.625 266.669 203.319 269.968 199.23 269.968C195.141 269.968 191.835 266.669 191.835 262.589C191.835 258.509 195.141 255.211 199.23 255.211ZM235.77 255.211C239.859 255.211 243.165 258.509 243.165 262.589C243.165 266.669 239.859 269.968 235.77 269.968C231.681 269.968 228.375 266.669 228.375 262.589C228.375 258.509 231.681 255.211 235.77 255.211ZM254.04 255.211C258.129 255.211 261.435 258.509 261.435 262.589C261.435 266.669 258.129 269.968 254.04 269.968C249.951 269.968 246.645 266.669 246.645 262.589C246.645 258.509 249.951 255.211 254.04 255.211ZM272.31 255.211C276.399 255.211 279.705 258.509 279.705 262.589C279.705 266.669 276.399 269.968 272.31 269.968C268.221 269.968 264.915 266.669 264.915 262.589C264.915 258.509 268.221 255.211 272.31 255.211ZM281.445 255.211C285.534 255.211 288.84 258.509 288.84 262.589C288.84 266.669 285.534 269.968 281.445 269.968C277.356 269.968 274.05 266.669 274.05 262.589C274.05 258.509 277.356 255.211 281.445 255.211ZM336.255 255.211C340.344 255.211 343.65 258.509 343.65 262.589C343.65 266.669 340.344 269.968 336.255 269.968C332.166 269.968 328.86 266.669 328.86 262.589C328.86 258.509 332.166 255.211 336.255 255.211ZM345.39 255.211C349.479 255.211 352.785 258.509 352.785 262.589C352.785 266.669 349.479 269.968 345.39 269.968C341.301 269.968 337.995 266.669 337.995 262.589C337.995 258.509 341.301 255.211 345.39 255.211ZM354.525 255.211C358.614 255.211 361.92 258.509 361.92 262.589C361.92 266.669 358.614 269.968 354.525 269.968C350.436 269.968 347.13 266.669 347.13 262.589C347.13 258.509 350.436 255.211 354.525 255.211ZM363.66 255.211C367.749 255.211 371.055 258.509 371.055 262.589C371.055 266.669 367.749 269.968 363.66 269.968C359.571 269.968 356.265 266.669 356.265 262.589C356.265 258.509 359.571 255.211 363.66 255.211ZM381.93 255.211C386.019 255.211 389.325 258.509 389.325 262.589C389.325 266.669 386.019 269.968 381.93 269.968C377.841 269.968 374.535 266.669 374.535 262.589C374.535 258.509 377.841 255.211 381.93 255.211ZM391.065 255.211C395.154 255.211 398.46 258.509 398.46 262.589C398.46 266.669 395.154 269.968 391.065 269.968C386.976 269.968 383.67 266.669 383.67 262.589C383.67 258.509 386.976 255.211 391.065 255.211ZM400.2 255.211C404.289 255.211 407.595 258.509 407.595 262.589C407.595 266.669 404.289 269.968 400.2 269.968C396.111 269.968 392.805 266.669 392.805 262.589C392.805 258.509 396.111 255.211 400.2 255.211ZM409.335 255.211C413.424 255.211 416.73 258.509 416.73 262.589C416.73 266.669 413.424 269.968 409.335 269.968C405.246 269.968 401.94 266.669 401.94 262.589C401.94 258.509 405.246 255.211 409.335 255.211ZM418.47 255.211C422.559 255.211 425.865 258.509 425.865 262.589C425.865 266.669 422.559 269.968 418.47 269.968C414.381 269.968 411.075 266.669 411.075 262.589C411.075 258.509 414.381 255.211 418.47 255.211ZM427.605 255.211C431.694 255.211 435 258.509 435 262.589C435 266.669 431.694 269.968 427.605 269.968C423.516 269.968 420.21 266.669 420.21 262.589C420.21 258.509 423.516 255.211 427.605 255.211ZM144.42 264.326C148.509 264.326 151.815 267.624 151.815 271.704C151.815 275.784 148.509 279.083 144.42 279.083C140.331 279.083 137.025 275.784 137.025 271.704C137.025 267.624 140.331 264.326 144.42 264.326ZM153.555 264.326C157.644 264.326 160.95 267.624 160.95 271.704C160.95 275.784 157.644 279.083 153.555 279.083C149.466 279.083 146.16 275.784 146.16 271.704C146.16 267.624 149.466 264.326 153.555 264.326ZM180.96 264.326C185.049 264.326 188.355 267.624 188.355 271.704C188.355 275.784 185.049 279.083 180.96 279.083C176.871 279.083 173.565 275.784 173.565 271.704C173.565 267.624 176.871 264.326 180.96 264.326ZM190.095 264.326C194.184 264.326 197.49 267.624 197.49 271.704C197.49 275.784 194.184 279.083 190.095 279.083C186.006 279.083 182.7 275.784 182.7 271.704C182.7 267.624 186.006 264.326 190.095 264.326ZM199.23 264.326C203.319 264.326 206.625 267.624 206.625 271.704C206.625 275.784 203.319 279.083 199.23 279.083C195.141 279.083 191.835 275.784 191.835 271.704C191.835 267.624 195.141 264.326 199.23 264.326ZM235.77 264.326C239.859 264.326 243.165 267.624 243.165 271.704C243.165 275.784 239.859 279.083 235.77 279.083C231.681 279.083 228.375 275.784 228.375 271.704C228.375 267.624 231.681 264.326 235.77 264.326ZM244.905 264.326C248.994 264.326 252.3 267.624 252.3 271.704C252.3 275.784 248.994 279.083 244.905 279.083C240.816 279.083 237.51 275.784 237.51 271.704C237.51 267.624 240.816 264.326 244.905 264.326ZM254.04 264.326C258.129 264.326 261.435 267.624 261.435 271.704C261.435 275.784 258.129 279.083 254.04 279.083C249.951 279.083 246.645 275.784 246.645 271.704C246.645 267.624 249.951 264.326 254.04 264.326ZM272.31 264.326C276.399 264.326 279.705 267.624 279.705 271.704C279.705 275.784 276.399 279.083 272.31 279.083C268.221 279.083 264.915 275.784 264.915 271.704C264.915 267.624 268.221 264.326 272.31 264.326ZM281.445 264.326C285.534 264.326 288.84 267.624 288.84 271.704C288.84 275.784 285.534 279.083 281.445 279.083C277.356 279.083 274.05 275.784 274.05 271.704C274.05 267.624 277.356 264.326 281.445 264.326ZM354.525 264.326C358.614 264.326 361.92 267.624 361.92 271.704C361.92 275.784 358.614 279.083 354.525 279.083C350.436 279.083 347.13 275.784 347.13 271.704C347.13 267.624 350.436 264.326 354.525 264.326ZM363.66 264.326C367.749 264.326 371.055 267.624 371.055 271.704C371.055 275.784 367.749 279.083 363.66 279.083C359.571 279.083 356.265 275.784 356.265 271.704C356.265 267.624 359.571 264.326 363.66 264.326ZM372.795 264.326C376.884 264.326 380.19 267.624 380.19 271.704C380.19 275.784 376.884 279.083 372.795 279.083C368.706 279.083 365.4 275.784 365.4 271.704C365.4 267.624 368.706 264.326 372.795 264.326ZM400.2 264.326C404.289 264.326 407.595 267.624 407.595 271.704C407.595 275.784 404.289 279.083 400.2 279.083C396.111 279.083 392.805 275.784 392.805 271.704C392.805 267.624 396.111 264.326 400.2 264.326ZM409.335 264.326C413.424 264.326 416.73 267.624 416.73 271.704C416.73 275.784 413.424 279.083 409.335 279.083C405.246 279.083 401.94 275.784 401.94 271.704C401.94 267.624 405.246 264.326 409.335 264.326ZM418.47 264.326C422.559 264.326 425.865 267.624 425.865 271.704C425.865 275.784 422.559 279.083 418.47 279.083C414.381 279.083 411.075 275.784 411.075 271.704C411.075 267.624 414.381 264.326 418.47 264.326ZM144.42 273.44C148.509 273.44 151.815 276.739 151.815 280.819C151.815 284.899 148.509 288.197 144.42 288.197C140.331 288.197 137.025 284.899 137.025 280.819C137.025 276.739 140.331 273.44 144.42 273.44ZM153.555 273.44C157.644 273.44 160.95 276.739 160.95 280.819C160.95 284.899 157.644 288.197 153.555 288.197C149.466 288.197 146.16 284.899 146.16 280.819C146.16 276.739 149.466 273.44 153.555 273.44ZM180.96 273.44C185.049 273.44 188.355 276.739 188.355 280.819C188.355 284.899 185.049 288.197 180.96 288.197C176.871 288.197 173.565 284.899 173.565 280.819C173.565 276.739 176.871 273.44 180.96 273.44ZM190.095 273.44C194.184 273.44 197.49 276.739 197.49 280.819C197.49 284.899 194.184 288.197 190.095 288.197C186.006 288.197 182.7 284.899 182.7 280.819C182.7 276.739 186.006 273.44 190.095 273.44ZM199.23 273.44C203.319 273.44 206.625 276.739 206.625 280.819C206.625 284.899 203.319 288.197 199.23 288.197C195.141 288.197 191.835 284.899 191.835 280.819C191.835 276.739 195.141 273.44 199.23 273.44ZM235.77 273.44C239.859 273.44 243.165 276.739 243.165 280.819C243.165 284.899 239.859 288.197 235.77 288.197C231.681 288.197 228.375 284.899 228.375 280.819C228.375 276.739 231.681 273.44 235.77 273.44ZM244.905 273.44C248.994 273.44 252.3 276.739 252.3 280.819C252.3 284.899 248.994 288.197 244.905 288.197C240.816 288.197 237.51 284.899 237.51 280.819C237.51 276.739 240.816 273.44 244.905 273.44ZM281.445 273.44C285.534 273.44 288.84 276.739 288.84 280.819C288.84 284.899 285.534 288.197 281.445 288.197C277.356 288.197 274.05 284.899 274.05 280.819C274.05 276.739 277.356 273.44 281.445 273.44ZM372.795 273.44C376.884 273.44 380.19 276.739 380.19 280.819C380.19 284.899 376.884 288.197 372.795 288.197C368.706 288.197 365.4 284.899 365.4 280.819C365.4 276.739 368.706 273.44 372.795 273.44ZM381.93 273.44C386.019 273.44 389.325 276.739 389.325 280.819C389.325 284.899 386.019 288.197 381.93 288.197C377.841 288.197 374.535 284.899 374.535 280.819C374.535 276.739 377.841 273.44 381.93 273.44ZM135.285 282.555C139.374 282.555 142.68 285.854 142.68 289.933C142.68 294.013 139.374 297.312 135.285 297.312C131.196 297.312 127.89 294.013 127.89 289.933C127.89 285.854 131.196 282.555 135.285 282.555ZM144.42 282.555C148.509 282.555 151.815 285.854 151.815 289.933C151.815 294.013 148.509 297.312 144.42 297.312C140.331 297.312 137.025 294.013 137.025 289.933C137.025 285.854 140.331 282.555 144.42 282.555ZM190.095 282.555C194.184 282.555 197.49 285.854 197.49 289.933C197.49 294.013 194.184 297.312 190.095 297.312C186.006 297.312 182.7 294.013 182.7 289.933C182.7 285.854 186.006 282.555 190.095 282.555ZM199.23 282.555C203.319 282.555 206.625 285.854 206.625 289.933C206.625 294.013 203.319 297.312 199.23 297.312C195.141 297.312 191.835 294.013 191.835 289.933C191.835 285.854 195.141 282.555 199.23 282.555ZM244.905 282.555C248.994 282.555 252.3 285.854 252.3 289.933C252.3 294.013 248.994 297.312 244.905 297.312C240.816 297.312 237.51 294.013 237.51 289.933C237.51 285.854 240.816 282.555 244.905 282.555ZM254.04 282.555C258.129 282.555 261.435 285.854 261.435 289.933C261.435 294.013 258.129 297.312 254.04 297.312C249.951 297.312 246.645 294.013 246.645 289.933C246.645 285.854 249.951 282.555 254.04 282.555ZM281.445 282.555C285.534 282.555 288.84 285.854 288.84 289.933C288.84 294.013 285.534 297.312 281.445 297.312C277.356 297.312 274.05 294.013 274.05 289.933C274.05 285.854 277.356 282.555 281.445 282.555ZM290.58 282.555C294.669 282.555 297.975 285.854 297.975 289.933C297.975 294.013 294.669 297.312 290.58 297.312C286.491 297.312 283.185 294.013 283.185 289.933C283.185 285.854 286.491 282.555 290.58 282.555ZM372.795 282.555C376.884 282.555 380.19 285.854 380.19 289.933C380.19 294.013 376.884 297.312 372.795 297.312C368.706 297.312 365.4 294.013 365.4 289.933C365.4 285.854 368.706 282.555 372.795 282.555ZM381.93 282.555C386.019 282.555 389.325 285.854 389.325 289.933C389.325 294.013 386.019 297.312 381.93 297.312C377.841 297.312 374.535 294.013 374.535 289.933C374.535 285.854 377.841 282.555 381.93 282.555ZM126.15 291.67C130.239 291.67 133.545 294.968 133.545 299.048C133.545 303.128 130.239 306.427 126.15 306.427C122.061 306.427 118.755 303.128 118.755 299.048C118.755 294.968 122.061 291.67 126.15 291.67ZM135.285 291.67C139.374 291.67 142.68 294.968 142.68 299.048C142.68 303.128 139.374 306.427 135.285 306.427C131.196 306.427 127.89 303.128 127.89 299.048C127.89 294.968 131.196 291.67 135.285 291.67ZM144.42 291.67C148.509 291.67 151.815 294.968 151.815 299.048C151.815 303.128 148.509 306.427 144.42 306.427C140.331 306.427 137.025 303.128 137.025 299.048C137.025 294.968 140.331 291.67 144.42 291.67ZM180.96 291.67C185.049 291.67 188.355 294.968 188.355 299.048C188.355 303.128 185.049 306.427 180.96 306.427C176.871 306.427 173.565 303.128 173.565 299.048C173.565 294.968 176.871 291.67 180.96 291.67ZM190.095 291.67C194.184 291.67 197.49 294.968 197.49 299.048C197.49 303.128 194.184 306.427 190.095 306.427C186.006 306.427 182.7 303.128 182.7 299.048C182.7 294.968 186.006 291.67 190.095 291.67ZM199.23 291.67C203.319 291.67 206.625 294.968 206.625 299.048C206.625 303.128 203.319 306.427 199.23 306.427C195.141 306.427 191.835 303.128 191.835 299.048C191.835 294.968 195.141 291.67 199.23 291.67ZM244.905 291.67C248.994 291.67 252.3 294.968 252.3 299.048C252.3 303.128 248.994 306.427 244.905 306.427C240.816 306.427 237.51 303.128 237.51 299.048C237.51 294.968 240.816 291.67 244.905 291.67ZM254.04 291.67C258.129 291.67 261.435 294.968 261.435 299.048C261.435 303.128 258.129 306.427 254.04 306.427C249.951 306.427 246.645 303.128 246.645 299.048C246.645 294.968 249.951 291.67 254.04 291.67ZM272.31 291.67C276.399 291.67 279.705 294.968 279.705 299.048C279.705 303.128 276.399 306.427 272.31 306.427C268.221 306.427 264.915 303.128 264.915 299.048C264.915 294.968 268.221 291.67 272.31 291.67ZM281.445 291.67C285.534 291.67 288.84 294.968 288.84 299.048C288.84 303.128 285.534 306.427 281.445 306.427C277.356 306.427 274.05 303.128 274.05 299.048C274.05 294.968 277.356 291.67 281.445 291.67ZM135.285 300.784C139.374 300.784 142.68 304.083 142.68 308.163C142.68 312.243 139.374 315.541 135.285 315.541C131.196 315.541 127.89 312.243 127.89 308.163C127.89 304.083 131.196 300.784 135.285 300.784ZM180.96 300.784C185.049 300.784 188.355 304.083 188.355 308.163C188.355 312.243 185.049 315.541 180.96 315.541C176.871 315.541 173.565 312.243 173.565 308.163C173.565 304.083 176.871 300.784 180.96 300.784ZM190.095 300.784C194.184 300.784 197.49 304.083 197.49 308.163C197.49 312.243 194.184 315.541 190.095 315.541C186.006 315.541 182.7 312.243 182.7 308.163C182.7 304.083 186.006 300.784 190.095 300.784ZM235.77 300.784C239.859 300.784 243.165 304.083 243.165 308.163C243.165 312.243 239.859 315.541 235.77 315.541C231.681 315.541 228.375 312.243 228.375 308.163C228.375 304.083 231.681 300.784 235.77 300.784ZM244.905 300.784C248.994 300.784 252.3 304.083 252.3 308.163C252.3 312.243 248.994 315.541 244.905 315.541C240.816 315.541 237.51 312.243 237.51 308.163C237.51 304.083 240.816 300.784 244.905 300.784ZM180.96 309.899C185.049 309.899 188.355 313.198 188.355 317.277C188.355 321.357 185.049 324.656 180.96 324.656C176.871 324.656 173.565 321.357 173.565 317.277C173.565 313.198 176.871 309.899 180.96 309.899ZM190.095 309.899C194.184 309.899 197.49 313.198 197.49 317.277C197.49 321.357 194.184 324.656 190.095 324.656C186.006 324.656 182.7 321.357 182.7 317.277C182.7 313.198 186.006 309.899 190.095 309.899ZM235.77 309.899C239.859 309.899 243.165 313.198 243.165 317.277C243.165 321.357 239.859 324.656 235.77 324.656C231.681 324.656 228.375 321.357 228.375 317.277C228.375 313.198 231.681 309.899 235.77 309.899ZM244.905 309.899C248.994 309.899 252.3 313.198 252.3 317.277C252.3 321.357 248.994 324.656 244.905 324.656C240.816 324.656 237.51 321.357 237.51 317.277C237.51 313.198 240.816 309.899 244.905 309.899ZM180.96 319.014C185.049 319.014 188.355 322.312 188.355 326.392C188.355 330.472 185.049 333.771 180.96 333.771C176.871 333.771 173.565 330.472 173.565 326.392C173.565 322.312 176.871 319.014 180.96 319.014ZM190.095 319.014C194.184 319.014 197.49 322.312 197.49 326.392C197.49 330.472 194.184 333.771 190.095 333.771C186.006 333.771 182.7 330.472 182.7 326.392C182.7 322.312 186.006 319.014 190.095 319.014ZM235.77 319.014C239.859 319.014 243.165 322.312 243.165 326.392C243.165 330.472 239.859 333.771 235.77 333.771C231.681 333.771 228.375 330.472 228.375 326.392C228.375 322.312 231.681 319.014 235.77 319.014ZM171.825 328.128C175.914 328.128 179.22 331.427 179.22 335.507C179.22 339.587 175.914 342.885 171.825 342.885C167.736 342.885 164.43 339.587 164.43 335.507C164.43 331.427 167.736 328.128 171.825 328.128ZM180.96 328.128C185.049 328.128 188.355 331.427 188.355 335.507C188.355 339.587 185.049 342.885 180.96 342.885C176.871 342.885 173.565 339.587 173.565 335.507C173.565 331.427 176.871 328.128 180.96 328.128ZM190.095 328.128C194.184 328.128 197.49 331.427 197.49 335.507C197.49 339.587 194.184 342.885 190.095 342.885C186.006 342.885 182.7 339.587 182.7 335.507C182.7 331.427 186.006 328.128 190.095 328.128ZM180.96 337.243C185.049 337.243 188.355 340.542 188.355 344.621C188.355 348.701 185.049 352 180.96 352C176.871 352 173.565 348.701 173.565 344.621C173.565 340.542 176.871 337.243 180.96 337.243Z" fill="#8D04FD"></path><path d="M254.043 45.5742C258.132 45.5742 261.437 48.8729 261.437 52.9528C261.437 57.0327 258.132 60.3313 254.043 60.3313C249.954 60.3313 246.647 57.0327 246.647 52.9528C246.647 48.8729 249.954 45.5742 254.043 45.5742ZM171.827 91.1476C175.916 91.1476 179.222 94.4462 179.222 98.5261C179.222 102.606 175.916 105.905 171.827 105.905C167.738 105.905 164.432 102.606 164.432 98.5261C164.432 94.4462 167.738 91.1476 171.827 91.1476ZM190.097 127.606C194.186 127.606 197.493 130.905 197.493 134.985C197.493 139.065 194.186 142.363 190.097 142.363C186.008 142.363 182.702 139.065 182.702 134.985C182.702 130.905 186.008 127.606 190.097 127.606ZM162.693 164.065C166.782 164.065 170.087 167.364 170.087 171.444C170.087 175.523 166.782 178.822 162.693 178.822C158.604 178.822 155.297 175.523 155.297 171.444C155.297 167.364 158.604 164.065 162.693 164.065ZM180.962 164.065C185.051 164.065 188.357 167.364 188.357 171.444C188.357 175.523 185.051 178.822 180.962 178.822C176.873 178.822 173.568 175.523 173.568 171.444C173.568 167.364 176.873 164.065 180.962 164.065ZM217.503 191.409C221.592 191.409 224.897 194.708 224.897 198.788C224.897 202.867 221.592 206.166 217.503 206.166C213.414 206.166 210.107 202.867 210.107 198.788C210.107 194.708 213.414 191.409 217.503 191.409ZM263.178 191.409C267.267 191.409 270.572 194.708 270.572 198.788C270.572 202.867 267.267 206.166 263.178 206.166C259.089 206.166 255.782 202.867 255.782 198.788C255.782 194.708 259.089 191.409 263.178 191.409ZM244.907 227.868C248.996 227.868 252.303 231.166 252.303 235.246C252.303 239.326 248.996 242.625 244.907 242.625C240.818 242.625 237.512 239.326 237.512 235.246C237.512 231.166 240.818 227.868 244.907 227.868ZM62.2075 246.097C66.2965 246.097 69.6025 249.396 69.6025 253.476C69.6025 257.555 66.2965 260.854 62.2075 260.854C58.1185 260.854 54.8125 257.555 54.8125 253.476C54.8125 249.396 58.1185 246.097 62.2075 246.097ZM244.907 255.212C248.996 255.212 252.303 258.51 252.303 262.59C252.303 266.67 248.996 269.969 244.907 269.969C240.818 269.969 237.512 266.67 237.512 262.59C237.512 258.51 240.818 255.212 244.907 255.212ZM272.312 282.556C276.401 282.556 279.708 285.854 279.708 289.934C279.708 294.014 276.401 297.313 272.312 297.313C268.223 297.313 264.918 294.014 264.918 289.934C264.918 285.854 268.223 282.556 272.312 282.556ZM290.583 291.67C294.672 291.67 297.978 294.969 297.978 299.049C297.978 303.129 294.672 306.427 290.583 306.427C286.494 306.427 283.187 303.129 283.187 299.049C283.187 294.969 286.494 291.67 290.583 291.67ZM126.152 300.785C130.241 300.785 133.547 304.084 133.547 308.164C133.547 312.244 130.241 315.542 126.152 315.542C122.063 315.542 118.757 312.244 118.757 308.164C118.757 304.084 122.063 300.785 126.152 300.785Z" fill="#16BAC5"></path><path d="M235.77 45.5742L243.165 60.3313H228.375L235.77 45.5742ZM126.15 100.262L133.545 115.019H118.755L126.15 100.262ZM281.445 100.262L288.84 115.019H274.05L281.445 100.262ZM199.23 109.377L206.625 124.134H191.835L199.23 109.377ZM98.745 145.836L106.14 160.593H91.35L98.745 145.836ZM281.445 145.836L288.84 160.593H274.05L281.445 145.836ZM126.15 191.409L133.545 206.166H118.755L126.15 191.409ZM7.395 227.868L14.79 242.625H0L7.395 227.868Z" fill="#F59CF4"></path></g><defs><clipPath id="clip0_8330_8255"><rect width="435" height="352" fill="white"></rect></clipPath></defs></svg>